<svg width="221" height="48" viewBox="0 0 221 48" fill="none" xmlns="http://www.w3.org/2000/svg">
<rect width="221" height="48" rx="6" fill="white"/>
<path d="M59.7727 21H58.3636C58.2803 20.5947 58.1345 20.2386 57.9261 19.9318C57.7216 19.625 57.4716 19.3674 57.1761 19.1591C56.8845 18.947 56.5606 18.7879 56.2045 18.6818C55.8485 18.5758 55.4773 18.5227 55.0909 18.5227C54.3864 18.5227 53.7481 18.7008 53.1761 19.0568C52.608 19.4129 52.1553 19.9375 51.8182 20.6307C51.4848 21.3239 51.3182 22.1742 51.3182 23.1818C51.3182 24.1894 51.4848 25.0398 51.8182 25.733C52.1553 26.4261 52.608 26.9508 53.1761 27.3068C53.7481 27.6629 54.3864 27.8409 55.0909 27.8409C55.4773 27.8409 55.8485 27.7879 56.2045 27.6818C56.5606 27.5758 56.8845 27.4186 57.1761 27.2102C57.4716 26.9981 57.7216 26.7386 57.9261 26.4318C58.1345 26.1212 58.2803 25.7652 58.3636 25.3636H59.7727C59.6667 25.9583 59.4735 26.4905 59.1932 26.9602C58.9129 27.4299 58.5644 27.8295 58.1477 28.1591C57.7311 28.4848 57.2633 28.733 56.7443 28.9034C56.2292 29.0739 55.678 29.1591 55.0909 29.1591C54.0985 29.1591 53.2159 28.9167 52.4432 28.4318C51.6705 27.947 51.0625 27.2576 50.6193 26.3636C50.1761 25.4697 49.9545 24.4091 49.9545 23.1818C49.9545 21.9545 50.1761 20.8939 50.6193 20C51.0625 19.1061 51.6705 18.4167 52.4432 17.9318C53.2159 17.447 54.0985 17.2045 55.0909 17.2045C55.678 17.2045 56.2292 17.2898 56.7443 17.4602C57.2633 17.6307 57.7311 17.8807 58.1477 18.2102C58.5644 18.536 58.9129 18.9337 59.1932 19.4034C59.4735 19.8693 59.6667 20.4015 59.7727 21ZM63.2088 17.3636V29H61.8679V17.3636H63.2088ZM68.233 29.2045C67.6799 29.2045 67.178 29.1004 66.7273 28.892C66.2765 28.6799 65.9186 28.375 65.6534 27.9773C65.3883 27.5758 65.2557 27.0909 65.2557 26.5227C65.2557 26.0227 65.3542 25.6174 65.5511 25.3068C65.7481 24.9924 66.0114 24.7462 66.3409 24.5682C66.6705 24.3902 67.0341 24.2576 67.4318 24.1705C67.8333 24.0795 68.2367 24.0076 68.642 23.9545C69.1723 23.8864 69.6023 23.8352 69.9318 23.8011C70.2652 23.7633 70.5076 23.7008 70.6591 23.6136C70.8144 23.5265 70.892 23.375 70.892 23.1591V23.1136C70.892 22.553 70.7386 22.1174 70.4318 21.8068C70.1288 21.4962 69.6686 21.3409 69.0511 21.3409C68.411 21.3409 67.9091 21.4811 67.5455 21.7614C67.1818 22.0417 66.9261 22.3409 66.7784 22.6591L65.5057 22.2045C65.733 21.6742 66.036 21.2614 66.4148 20.9659C66.7973 20.6667 67.214 20.4583 67.6648 20.3409C68.1193 20.2197 68.5663 20.1591 69.0057 20.1591C69.286 20.1591 69.608 20.1932 69.9716 20.2614C70.339 20.3258 70.6932 20.4602 71.0341 20.6648C71.3788 20.8693 71.6648 21.178 71.892 21.5909C72.1193 22.0038 72.233 22.5568 72.233 23.25V29H70.892V27.8182H70.8239C70.733 28.0076 70.5814 28.2102 70.3693 28.4261C70.1572 28.642 69.875 28.8258 69.5227 28.9773C69.1705 29.1288 68.7405 29.2045 68.233 29.2045ZM68.4375 28C68.9678 28 69.4148 27.8958 69.7784 27.6875C70.1458 27.4792 70.4223 27.2102 70.608 26.8807C70.7973 26.5511 70.892 26.2045 70.892 25.8409V24.6136C70.8352 24.6818 70.7102 24.7443 70.517 24.8011C70.3277 24.8542 70.108 24.9015 69.858 24.9432C69.6117 24.9811 69.3712 25.0152 69.1364 25.0455C68.9053 25.072 68.7178 25.0947 68.5739 25.1136C68.2254 25.1591 67.8996 25.233 67.5966 25.3352C67.2973 25.4337 67.0549 25.5833 66.8693 25.7841C66.6875 25.9811 66.5966 26.25 66.5966 26.5909C66.5966 27.0568 66.7689 27.4091 67.1136 27.6477C67.4621 27.8826 67.9034 28 68.4375 28ZM80.8622 22.2273L79.6577 22.5682C79.5819 22.3674 79.4702 22.1723 79.3224 21.983C79.1785 21.7898 78.9815 21.6307 78.7315 21.5057C78.4815 21.3807 78.1615 21.3182 77.7713 21.3182C77.2372 21.3182 76.7921 21.4413 76.4361 21.6875C76.0838 21.9299 75.9077 22.2386 75.9077 22.6136C75.9077 22.947 76.0289 23.2102 76.2713 23.4034C76.5137 23.5966 76.8925 23.7576 77.4077 23.8864L78.7031 24.2045C79.4834 24.3939 80.0649 24.6837 80.4474 25.0739C80.83 25.4602 81.0213 25.9583 81.0213 26.5682C81.0213 27.0682 80.8774 27.5152 80.5895 27.9091C80.3054 28.303 79.9077 28.6136 79.3963 28.8409C78.8849 29.0682 78.2902 29.1818 77.6122 29.1818C76.7221 29.1818 75.9853 28.9886 75.402 28.6023C74.8187 28.2159 74.4493 27.6515 74.294 26.9091L75.5668 26.5909C75.688 27.0606 75.9171 27.4129 76.2543 27.6477C76.5952 27.8826 77.0402 28 77.5895 28C78.2145 28 78.7107 27.8674 79.0781 27.6023C79.4493 27.3333 79.6349 27.0114 79.6349 26.6364C79.6349 26.3333 79.5289 26.0795 79.3168 25.875C79.1046 25.6667 78.7789 25.5114 78.3395 25.4091L76.8849 25.0682C76.0857 24.8788 75.4986 24.5852 75.1236 24.1875C74.7524 23.786 74.5668 23.2841 74.5668 22.6818C74.5668 22.1894 74.705 21.7538 74.9815 21.375C75.2618 20.9962 75.6425 20.6989 76.1236 20.483C76.6084 20.267 77.1577 20.1591 77.7713 20.1591C78.6349 20.1591 79.313 20.3485 79.8054 20.7273C80.3016 21.1061 80.6539 21.6061 80.8622 22.2273ZM89.2216 22.2273L88.017 22.5682C87.9413 22.3674 87.8295 22.1723 87.6818 21.983C87.5379 21.7898 87.3409 21.6307 87.0909 21.5057C86.8409 21.3807 86.5208 21.3182 86.1307 21.3182C85.5966 21.3182 85.1515 21.4413 84.7955 21.6875C84.4432 21.9299 84.267 22.2386 84.267 22.6136C84.267 22.947 84.3883 23.2102 84.6307 23.4034C84.8731 23.5966 85.2519 23.7576 85.767 23.8864L87.0625 24.2045C87.8428 24.3939 88.4242 24.6837 88.8068 25.0739C89.1894 25.4602 89.3807 25.9583 89.3807 26.5682C89.3807 27.0682 89.2367 27.5152 88.9489 27.9091C88.6648 28.303 88.267 28.6136 87.7557 28.8409C87.2443 29.0682 86.6496 29.1818 85.9716 29.1818C85.0814 29.1818 84.3447 28.9886 83.7614 28.6023C83.178 28.2159 82.8087 27.6515 82.6534 26.9091L83.9261 26.5909C84.0473 27.0606 84.2765 27.4129 84.6136 27.6477C84.9545 27.8826 85.3996 28 85.9489 28C86.5739 28 87.0701 27.8674 87.4375 27.6023C87.8087 27.3333 87.9943 27.0114 87.9943 26.6364C87.9943 26.3333 87.8883 26.0795 87.6761 25.875C87.464 25.6667 87.1383 25.5114 86.6989 25.4091L85.2443 25.0682C84.4451 24.8788 83.858 24.5852 83.483 24.1875C83.1117 23.786 82.9261 23.2841 82.9261 22.6818C82.9261 22.1894 83.0644 21.7538 83.3409 21.375C83.6212 20.9962 84.0019 20.6989 84.483 20.483C84.9678 20.267 85.517 20.1591 86.1307 20.1591C86.9943 20.1591 87.6723 20.3485 88.1648 20.7273C88.661 21.1061 89.0133 21.6061 89.2216 22.2273ZM95.0582 29.1818C94.2173 29.1818 93.492 28.9962 92.8821 28.625C92.276 28.25 91.8082 27.7273 91.4787 27.0568C91.1529 26.3826 90.9901 25.5985 90.9901 24.7045C90.9901 23.8106 91.1529 23.0227 91.4787 22.3409C91.8082 21.6553 92.2666 21.1212 92.8537 20.7386C93.4446 20.3523 94.134 20.1591 94.9219 20.1591C95.3764 20.1591 95.8253 20.2348 96.2685 20.3864C96.7116 20.5379 97.1151 20.7841 97.4787 21.125C97.8423 21.4621 98.1321 21.9091 98.348 22.4659C98.5639 23.0227 98.6719 23.7083 98.6719 24.5227V25.0909H91.9446V23.9318H97.3082C97.3082 23.4394 97.2098 23 97.0128 22.6136C96.8196 22.2273 96.5431 21.9223 96.1832 21.6989C95.8272 21.4754 95.4067 21.3636 94.9219 21.3636C94.3878 21.3636 93.9257 21.4962 93.5355 21.7614C93.1491 22.0227 92.8518 22.3636 92.6435 22.7841C92.4351 23.2045 92.331 23.6553 92.331 24.1364V24.9091C92.331 25.5682 92.4446 26.1269 92.6719 26.5852C92.9029 27.0398 93.223 27.3864 93.6321 27.625C94.0412 27.8598 94.5166 27.9773 95.0582 27.9773C95.4105 27.9773 95.7287 27.928 96.0128 27.8295C96.3007 27.7273 96.5488 27.5758 96.7571 27.375C96.9654 27.1705 97.1264 26.9167 97.2401 26.6136L98.5355 26.9773C98.3991 27.4167 98.17 27.803 97.848 28.1364C97.526 28.4659 97.1283 28.7235 96.6548 28.9091C96.1813 29.0909 95.6491 29.1818 95.0582 29.1818ZM106.893 22.2273L105.689 22.5682C105.613 22.3674 105.501 22.1723 105.354 21.983C105.21 21.7898 105.013 21.6307 104.763 21.5057C104.513 21.3807 104.193 21.3182 103.803 21.3182C103.268 21.3182 102.823 21.4413 102.467 21.6875C102.115 21.9299 101.939 22.2386 101.939 22.6136C101.939 22.947 102.06 23.2102 102.303 23.4034C102.545 23.5966 102.924 23.7576 103.439 23.8864L104.734 24.2045C105.515 24.3939 106.096 24.6837 106.479 25.0739C106.861 25.4602 107.053 25.9583 107.053 26.5682C107.053 27.0682 106.909 27.5152 106.621 27.9091C106.337 28.303 105.939 28.6136 105.428 28.8409C104.916 29.0682 104.321 29.1818 103.643 29.1818C102.753 29.1818 102.017 28.9886 101.433 28.6023C100.85 28.2159 100.481 27.6515 100.325 26.9091L101.598 26.5909C101.719 27.0606 101.948 27.4129 102.286 27.6477C102.626 27.8826 103.071 28 103.621 28C104.246 28 104.742 27.8674 105.109 27.6023C105.481 27.3333 105.666 27.0114 105.666 26.6364C105.666 26.3333 105.56 26.0795 105.348 25.875C105.136 25.6667 104.81 25.5114 104.371 25.4091L102.916 25.0682C102.117 24.8788 101.53 24.5852 101.155 24.1875C100.784 23.786 100.598 23.2841 100.598 22.6818C100.598 22.1894 100.736 21.7538 101.013 21.375C101.293 20.9962 101.674 20.6989 102.155 20.483C102.64 20.267 103.189 20.1591 103.803 20.1591C104.666 20.1591 105.344 20.3485 105.837 20.7273C106.333 21.1061 106.685 21.6061 106.893 22.2273Z" fill="#9DA6BA"/>
<path fill-rule="evenodd" clip-rule="evenodd" d="M21 14C19.3431 14 18 15.3431 18 17V31C18 32.6569 19.3431 34 21 34H33C34.6569 34 36 32.6569 36 31V19.7426C36 18.947 35.6839 18.1839 35.1213 17.6213L32.3787 14.8787C31.8161 14.3161 31.053 14 30.2574 14H21ZM30 16.2071V18C30 19.1046 30.8954 20 32 20H33.7929C34.2383 20 34.4614 19.4614 34.1464 19.1464L30.8536 15.8535C30.5386 15.5386 30 15.7617 30 16.2071ZM22 23C22 22.4477 22.4477 22 23 22H31C31.5523 22 32 22.4477 32 23C32 23.5523 31.5523 24 31 24H23C22.4477 24 22 23.5523 22 23ZM23 26C22.4477 26 22 26.4477 22 27C22 27.5523 22.4477 28 23 28H27C27.5523 28 28 27.5523 28 27C28 26.4477 27.5523 26 27 26H23Z" fill="#9DA6BA"/>
</svg>
