<svg width="221" height="48" viewBox="0 0 221 48" fill="none" xmlns="http://www.w3.org/2000/svg">
<rect width="221" height="48" rx="6" fill="#DE887F"/>
<path d="M54.0455 29H50.2784V17.3636H54.1648C55.3049 17.3636 56.2841 17.5966 57.1023 18.0625C57.9205 18.5246 58.5473 19.1894 58.983 20.0568C59.4223 20.9205 59.642 21.9564 59.642 23.1648C59.642 24.3769 59.4205 25.4186 58.9773 26.2898C58.5379 27.161 57.9015 27.8314 57.0682 28.3011C56.2348 28.767 55.2273 29 54.0455 29ZM52.0341 27.4659H53.9489C54.8352 27.4659 55.572 27.2992 56.1591 26.9659C56.7462 26.6288 57.1856 26.142 57.4773 25.5057C57.7689 24.8655 57.9148 24.0852 57.9148 23.1648C57.9148 22.2519 57.7689 21.4773 57.4773 20.8409C57.1894 20.2045 56.7595 19.7216 56.1875 19.392C55.6155 19.0625 54.9053 18.8977 54.0568 18.8977H52.0341V27.4659ZM64.2287 29.1932C63.6757 29.1932 63.1757 29.0909 62.7287 28.8864C62.2817 28.678 61.9276 28.3769 61.6662 27.983C61.4086 27.589 61.2798 27.1061 61.2798 26.5341C61.2798 26.0417 61.3745 25.6364 61.5639 25.3182C61.7533 25 62.009 24.7481 62.331 24.5625C62.6529 24.3769 63.0128 24.2367 63.4105 24.142C63.8082 24.0473 64.2135 23.9754 64.6264 23.9261C65.1491 23.8655 65.5734 23.8163 65.8991 23.7784C66.2249 23.7367 66.4616 23.6705 66.6094 23.5795C66.7571 23.4886 66.831 23.3409 66.831 23.1364V23.0966C66.831 22.6004 66.6908 22.2159 66.4105 21.9432C66.134 21.6705 65.7211 21.5341 65.1719 21.5341C64.5999 21.5341 64.1491 21.661 63.8196 21.9148C63.4938 22.1648 63.2685 22.4432 63.1435 22.75L61.5469 22.3864C61.7363 21.8561 62.0128 21.428 62.3764 21.1023C62.7438 20.7727 63.1662 20.5341 63.6435 20.3864C64.1207 20.2348 64.6226 20.1591 65.1491 20.1591C65.4976 20.1591 65.867 20.2008 66.2571 20.2841C66.651 20.3636 67.0185 20.5114 67.3594 20.7273C67.7041 20.9432 67.9863 21.2519 68.206 21.6534C68.4257 22.0511 68.5355 22.5682 68.5355 23.2045V29H66.8764V27.8068H66.8082C66.6984 28.0265 66.5336 28.2424 66.3139 28.4545C66.0942 28.6667 65.812 28.8428 65.4673 28.983C65.1226 29.1231 64.7098 29.1932 64.2287 29.1932ZM64.598 27.8295C65.0677 27.8295 65.4692 27.7367 65.8026 27.5511C66.1397 27.3655 66.3954 27.1231 66.5696 26.8239C66.7476 26.5208 66.8366 26.197 66.8366 25.8523V24.7273C66.776 24.7879 66.6586 24.8447 66.4844 24.8977C66.3139 24.947 66.1188 24.9905 65.8991 25.0284C65.6795 25.0625 65.4654 25.0947 65.2571 25.125C65.0488 25.1515 64.8745 25.1742 64.7344 25.1932C64.4048 25.2348 64.1037 25.3049 63.831 25.4034C63.562 25.5019 63.3461 25.6439 63.1832 25.8295C63.0241 26.0114 62.9446 26.2538 62.9446 26.5568C62.9446 26.9773 63.0999 27.2955 63.4105 27.5114C63.7211 27.7235 64.117 27.8295 64.598 27.8295ZM77.3381 22.4034L75.7983 22.6761C75.7339 22.4792 75.6316 22.2917 75.4915 22.1136C75.3551 21.9356 75.1695 21.7898 74.9347 21.6761C74.6998 21.5625 74.4063 21.5057 74.054 21.5057C73.5729 21.5057 73.1714 21.6136 72.8494 21.8295C72.5275 22.0417 72.3665 22.3163 72.3665 22.6534C72.3665 22.9451 72.4744 23.1799 72.6903 23.358C72.9063 23.536 73.2547 23.6818 73.7358 23.7955L75.1222 24.1136C75.9252 24.2992 76.5237 24.5852 76.9176 24.9716C77.3116 25.358 77.5085 25.8598 77.5085 26.4773C77.5085 27 77.357 27.4659 77.054 27.875C76.7547 28.2803 76.3362 28.5985 75.7983 28.8295C75.2642 29.0606 74.6449 29.1761 73.9403 29.1761C72.9631 29.1761 72.1657 28.9678 71.5483 28.5511C70.9309 28.1307 70.5521 27.5341 70.4119 26.7614L72.054 26.5114C72.1563 26.9394 72.3665 27.2633 72.6847 27.483C73.0028 27.6989 73.4176 27.8068 73.929 27.8068C74.4858 27.8068 74.9309 27.6913 75.2642 27.4602C75.5975 27.2254 75.7642 26.9394 75.7642 26.6023C75.7642 26.3295 75.6619 26.1004 75.4574 25.9148C75.2566 25.7292 74.9479 25.589 74.5312 25.4943L73.054 25.1705C72.2396 24.9848 71.6373 24.6894 71.2472 24.2841C70.8608 23.8788 70.6676 23.3655 70.6676 22.7443C70.6676 22.2292 70.8116 21.7784 71.0994 21.392C71.3873 21.0057 71.785 20.7045 72.2926 20.4886C72.8002 20.2689 73.3816 20.1591 74.0369 20.1591C74.9801 20.1591 75.7225 20.3636 76.2642 20.7727C76.8059 21.178 77.1638 21.7216 77.3381 22.4034ZM81.0753 23.8182V29H79.3764V17.3636H81.0526V21.6932H81.1605C81.3651 21.2235 81.6776 20.8504 82.098 20.5739C82.5185 20.2973 83.0677 20.1591 83.7457 20.1591C84.3442 20.1591 84.867 20.2822 85.3139 20.5284C85.7647 20.7746 86.1132 21.142 86.3594 21.6307C86.6094 22.1155 86.7344 22.7216 86.7344 23.4489V29H85.0355V23.6534C85.0355 23.0133 84.8707 22.517 84.5412 22.1648C84.2116 21.8087 83.7533 21.6307 83.1662 21.6307C82.7647 21.6307 82.4048 21.7159 82.0866 21.8864C81.7723 22.0568 81.5241 22.3068 81.3423 22.6364C81.1643 22.9621 81.0753 23.3561 81.0753 23.8182ZM89.1378 29V17.3636H90.8366V21.6875H90.9389C91.0374 21.5057 91.1795 21.2955 91.3651 21.0568C91.5507 20.8182 91.8082 20.6098 92.1378 20.4318C92.4673 20.25 92.9029 20.1591 93.4446 20.1591C94.1491 20.1591 94.7779 20.3371 95.331 20.6932C95.884 21.0492 96.3177 21.5625 96.6321 22.233C96.9503 22.9034 97.1094 23.7102 97.1094 24.6534C97.1094 25.5966 96.9522 26.4053 96.6378 27.0795C96.3234 27.75 95.8916 28.267 95.3423 28.6307C94.7931 28.9905 94.1662 29.1705 93.4616 29.1705C92.9313 29.1705 92.4976 29.0814 92.1605 28.9034C91.8272 28.7254 91.5658 28.517 91.3764 28.2784C91.187 28.0398 91.0412 27.8277 90.9389 27.642H90.7969V29H89.1378ZM90.8026 24.6364C90.8026 25.25 90.8916 25.7879 91.0696 26.25C91.2476 26.7121 91.5052 27.0739 91.8423 27.3352C92.1795 27.5928 92.5923 27.7216 93.081 27.7216C93.5885 27.7216 94.0128 27.5871 94.3537 27.3182C94.6946 27.0455 94.9522 26.6761 95.1264 26.2102C95.3045 25.7443 95.3935 25.2197 95.3935 24.6364C95.3935 24.0606 95.3063 23.5436 95.1321 23.0852C94.9616 22.6269 94.7041 22.2652 94.3594 22C94.0185 21.7348 93.5923 21.6023 93.081 21.6023C92.5885 21.6023 92.1719 21.7292 91.831 21.983C91.4938 22.2367 91.2382 22.5909 91.0639 23.0455C90.8897 23.5 90.8026 24.0303 90.8026 24.6364ZM102.693 29.1761C101.875 29.1761 101.161 28.9886 100.551 28.6136C99.9413 28.2386 99.4678 27.714 99.1307 27.0398C98.7936 26.3655 98.625 25.5777 98.625 24.6761C98.625 23.7708 98.7936 22.9792 99.1307 22.3011C99.4678 21.6231 99.9413 21.0966 100.551 20.7216C101.161 20.3466 101.875 20.1591 102.693 20.1591C103.511 20.1591 104.225 20.3466 104.835 20.7216C105.445 21.0966 105.919 21.6231 106.256 22.3011C106.593 22.9792 106.761 23.7708 106.761 24.6761C106.761 25.5777 106.593 26.3655 106.256 27.0398C105.919 27.714 105.445 28.2386 104.835 28.6136C104.225 28.9886 103.511 29.1761 102.693 29.1761ZM102.699 27.75C103.229 27.75 103.669 27.6098 104.017 27.3295C104.366 27.0492 104.623 26.6761 104.79 26.2102C104.96 25.7443 105.045 25.2311 105.045 24.6705C105.045 24.1136 104.96 23.6023 104.79 23.1364C104.623 22.6667 104.366 22.2898 104.017 22.0057C103.669 21.7216 103.229 21.5795 102.699 21.5795C102.165 21.5795 101.722 21.7216 101.369 22.0057C101.021 22.2898 100.761 22.6667 100.591 23.1364C100.424 23.6023 100.341 24.1136 100.341 24.6705C100.341 25.2311 100.424 25.7443 100.591 26.2102C100.761 26.6761 101.021 27.0492 101.369 27.3295C101.722 27.6098 102.165 27.75 102.699 27.75ZM111.197 29.1932C110.644 29.1932 110.144 29.0909 109.697 28.8864C109.25 28.678 108.896 28.3769 108.635 27.983C108.377 27.589 108.249 27.1061 108.249 26.5341C108.249 26.0417 108.343 25.6364 108.533 25.3182C108.722 25 108.978 24.7481 109.3 24.5625C109.622 24.3769 109.982 24.2367 110.379 24.142C110.777 24.0473 111.182 23.9754 111.595 23.9261C112.118 23.8655 112.542 23.8163 112.868 23.7784C113.194 23.7367 113.43 23.6705 113.578 23.5795C113.726 23.4886 113.8 23.3409 113.8 23.1364V23.0966C113.8 22.6004 113.66 22.2159 113.379 21.9432C113.103 21.6705 112.69 21.5341 112.141 21.5341C111.569 21.5341 111.118 21.661 110.788 21.9148C110.463 22.1648 110.237 22.4432 110.112 22.75L108.516 22.3864C108.705 21.8561 108.982 21.428 109.345 21.1023C109.713 20.7727 110.135 20.5341 110.612 20.3864C111.089 20.2348 111.591 20.1591 112.118 20.1591C112.466 20.1591 112.836 20.2008 113.226 20.2841C113.62 20.3636 113.987 20.5114 114.328 20.7273C114.673 20.9432 114.955 21.2519 115.175 21.6534C115.394 22.0511 115.504 22.5682 115.504 23.2045V29H113.845V27.8068H113.777C113.667 28.0265 113.502 28.2424 113.283 28.4545C113.063 28.6667 112.781 28.8428 112.436 28.983C112.091 29.1231 111.679 29.1932 111.197 29.1932ZM111.567 27.8295C112.036 27.8295 112.438 27.7367 112.771 27.5511C113.108 27.3655 113.364 27.1231 113.538 26.8239C113.716 26.5208 113.805 26.197 113.805 25.8523V24.7273C113.745 24.7879 113.627 24.8447 113.453 24.8977C113.283 24.947 113.088 24.9905 112.868 25.0284C112.648 25.0625 112.434 25.0947 112.226 25.125C112.018 25.1515 111.843 25.1742 111.703 25.1932C111.374 25.2348 111.072 25.3049 110.8 25.4034C110.531 25.5019 110.315 25.6439 110.152 25.8295C109.993 26.0114 109.913 26.2538 109.913 26.5568C109.913 26.9773 110.069 27.2955 110.379 27.5114C110.69 27.7235 111.086 27.8295 111.567 27.8295ZM117.767 29V20.2727H119.409V21.6591H119.5C119.659 21.1894 119.939 20.8201 120.341 20.5511C120.746 20.2784 121.205 20.142 121.716 20.142C121.822 20.142 121.947 20.1458 122.091 20.1534C122.239 20.161 122.354 20.1705 122.438 20.1818V21.8068C122.369 21.7879 122.248 21.767 122.074 21.7443C121.9 21.7178 121.725 21.7045 121.551 21.7045C121.15 21.7045 120.792 21.7898 120.477 21.9602C120.167 22.1269 119.92 22.3598 119.739 22.6591C119.557 22.9545 119.466 23.2917 119.466 23.6705V29H117.767ZM126.862 29.1705C126.158 29.1705 125.529 28.9905 124.976 28.6307C124.427 28.267 123.995 27.75 123.68 27.0795C123.37 26.4053 123.214 25.5966 123.214 24.6534C123.214 23.7102 123.372 22.9034 123.686 22.233C124.004 21.5625 124.44 21.0492 124.993 20.6932C125.546 20.3371 126.173 20.1591 126.874 20.1591C127.415 20.1591 127.851 20.25 128.18 20.4318C128.514 20.6098 128.771 20.8182 128.953 21.0568C129.139 21.2955 129.283 21.5057 129.385 21.6875H129.487V17.3636H131.186V29H129.527V27.642H129.385C129.283 27.8277 129.135 28.0398 128.942 28.2784C128.752 28.517 128.491 28.7254 128.158 28.9034C127.824 29.0814 127.393 29.1705 126.862 29.1705ZM127.237 27.7216C127.726 27.7216 128.139 27.5928 128.476 27.3352C128.817 27.0739 129.074 26.7121 129.249 26.25C129.427 25.7879 129.516 25.25 129.516 24.6364C129.516 24.0303 129.429 23.5 129.254 23.0455C129.08 22.5909 128.824 22.2367 128.487 21.983C128.15 21.7292 127.733 21.6023 127.237 21.6023C126.726 21.6023 126.3 21.7348 125.959 22C125.618 22.2652 125.36 22.6269 125.186 23.0852C125.016 23.5436 124.93 24.0606 124.93 24.6364C124.93 25.2197 125.018 25.7443 125.192 26.2102C125.366 26.6761 125.624 27.0455 125.964 27.3182C126.309 27.5871 126.733 27.7216 127.237 27.7216Z" fill="white"/>
<path fill-rule="evenodd" clip-rule="evenodd" d="M17.9931 21.0701C17.361 21.639 17 22.4495 17 23.3V30.9639C17 32.6208 18.3431 33.9639 20 33.9639H34C35.6569 33.9639 37 32.6208 37 30.9639V23.3C37 22.4495 36.639 21.639 36.0069 21.0701L29.0069 14.7701C27.866 13.7433 26.134 13.7433 24.9931 14.7701L17.9931 21.0701ZM26 24.9639C24.8954 24.9639 24 25.8593 24 26.9639V30.9639C24 31.5162 24.4477 31.9639 25 31.9639H29C29.5523 31.9639 30 31.5162 30 30.9639V26.9639C30 25.8593 29.1046 24.9639 28 24.9639H26Z" fill="white"/>
</svg>
