<svg width="221" height="48" viewBox="0 0 221 48" fill="none" xmlns="http://www.w3.org/2000/svg">
<rect width="221" height="48" rx="6" fill="white"/>
<path d="M54 29H50.4091V17.3636H54.1591C55.2879 17.3636 56.2538 17.5966 57.0568 18.0625C57.8598 18.5246 58.4754 19.1894 58.9034 20.0568C59.3314 20.9205 59.5455 21.9545 59.5455 23.1591C59.5455 24.3712 59.3295 25.4148 58.8977 26.2898C58.4659 27.161 57.8371 27.8314 57.0114 28.3011C56.1856 28.767 55.1818 29 54 29ZM51.8182 27.75H53.9091C54.8712 27.75 55.6686 27.5644 56.3011 27.1932C56.9337 26.822 57.4053 26.2936 57.7159 25.608C58.0265 24.9223 58.1818 24.1061 58.1818 23.1591C58.1818 22.2197 58.0284 21.411 57.7216 20.733C57.4148 20.0511 56.9564 19.5284 56.3466 19.1648C55.7367 18.7973 54.9773 18.6136 54.0682 18.6136H51.8182V27.75ZM64.2955 29.2045C63.7424 29.2045 63.2405 29.1004 62.7898 28.892C62.339 28.6799 61.9811 28.375 61.7159 27.9773C61.4508 27.5758 61.3182 27.0909 61.3182 26.5227C61.3182 26.0227 61.4167 25.6174 61.6136 25.3068C61.8106 24.9924 62.0739 24.7462 62.4034 24.5682C62.733 24.3902 63.0966 24.2576 63.4943 24.1705C63.8958 24.0795 64.2992 24.0076 64.7045 23.9545C65.2348 23.8864 65.6648 23.8352 65.9943 23.8011C66.3277 23.7633 66.5701 23.7008 66.7216 23.6136C66.8769 23.5265 66.9545 23.375 66.9545 23.1591V23.1136C66.9545 22.553 66.8011 22.1174 66.4943 21.8068C66.1913 21.4962 65.7311 21.3409 65.1136 21.3409C64.4735 21.3409 63.9716 21.4811 63.608 21.7614C63.2443 22.0417 62.9886 22.3409 62.8409 22.6591L61.5682 22.2045C61.7955 21.6742 62.0985 21.2614 62.4773 20.9659C62.8598 20.6667 63.2765 20.4583 63.7273 20.3409C64.1818 20.2197 64.6288 20.1591 65.0682 20.1591C65.3485 20.1591 65.6705 20.1932 66.0341 20.2614C66.4015 20.3258 66.7557 20.4602 67.0966 20.6648C67.4413 20.8693 67.7273 21.178 67.9545 21.5909C68.1818 22.0038 68.2955 22.5568 68.2955 23.25V29H66.9545V27.8182H66.8864C66.7955 28.0076 66.6439 28.2102 66.4318 28.4261C66.2197 28.642 65.9375 28.8258 65.5852 28.9773C65.233 29.1288 64.803 29.2045 64.2955 29.2045ZM64.5 28C65.0303 28 65.4773 27.8958 65.8409 27.6875C66.2083 27.4792 66.4848 27.2102 66.6705 26.8807C66.8598 26.5511 66.9545 26.2045 66.9545 25.8409V24.6136C66.8977 24.6818 66.7727 24.7443 66.5795 24.8011C66.3902 24.8542 66.1705 24.9015 65.9205 24.9432C65.6742 24.9811 65.4337 25.0152 65.1989 25.0455C64.9678 25.072 64.7803 25.0947 64.6364 25.1136C64.2879 25.1591 63.9621 25.233 63.6591 25.3352C63.3598 25.4337 63.1174 25.5833 62.9318 25.7841C62.75 25.9811 62.6591 26.25 62.6591 26.5909C62.6591 27.0568 62.8314 27.4091 63.1761 27.6477C63.5246 27.8826 63.9659 28 64.5 28ZM74.5384 20.2727V21.4091H70.0156V20.2727H74.5384ZM71.3338 18.1818H72.6747V26.5C72.6747 26.8788 72.7296 27.1629 72.8395 27.3523C72.9531 27.5379 73.0971 27.6629 73.2713 27.7273C73.4493 27.7879 73.6368 27.8182 73.8338 27.8182C73.9815 27.8182 74.1027 27.8106 74.1974 27.7955C74.2921 27.7765 74.3679 27.7614 74.4247 27.75L74.6974 28.9545C74.6065 28.9886 74.4796 29.0227 74.3168 29.0568C74.1539 29.0947 73.9474 29.1136 73.6974 29.1136C73.3187 29.1136 72.9474 29.0322 72.5838 28.8693C72.224 28.7064 71.9247 28.4583 71.6861 28.125C71.4512 27.7917 71.3338 27.3712 71.3338 26.8636V18.1818ZM79.1236 29.2045C78.5705 29.2045 78.0687 29.1004 77.6179 28.892C77.1671 28.6799 76.8092 28.375 76.544 27.9773C76.2789 27.5758 76.1463 27.0909 76.1463 26.5227C76.1463 26.0227 76.2448 25.6174 76.4418 25.3068C76.6387 24.9924 76.902 24.7462 77.2315 24.5682C77.5611 24.3902 77.9247 24.2576 78.3224 24.1705C78.724 24.0795 79.1274 24.0076 79.5327 23.9545C80.063 23.8864 80.4929 23.8352 80.8224 23.8011C81.1558 23.7633 81.3982 23.7008 81.5497 23.6136C81.705 23.5265 81.7827 23.375 81.7827 23.1591V23.1136C81.7827 22.553 81.6293 22.1174 81.3224 21.8068C81.0194 21.4962 80.5592 21.3409 79.9418 21.3409C79.3016 21.3409 78.7997 21.4811 78.4361 21.7614C78.0724 22.0417 77.8168 22.3409 77.669 22.6591L76.3963 22.2045C76.6236 21.6742 76.9266 21.2614 77.3054 20.9659C77.688 20.6667 78.1046 20.4583 78.5554 20.3409C79.0099 20.2197 79.4569 20.1591 79.8963 20.1591C80.1766 20.1591 80.4986 20.1932 80.8622 20.2614C81.2296 20.3258 81.5838 20.4602 81.9247 20.6648C82.2694 20.8693 82.5554 21.178 82.7827 21.5909C83.0099 22.0038 83.1236 22.5568 83.1236 23.25V29H81.7827V27.8182H81.7145C81.6236 28.0076 81.4721 28.2102 81.2599 28.4261C81.0478 28.642 80.7656 28.8258 80.4134 28.9773C80.0611 29.1288 79.6312 29.2045 79.1236 29.2045ZM79.3281 28C79.8584 28 80.3054 27.8958 80.669 27.6875C81.0365 27.4792 81.313 27.2102 81.4986 26.8807C81.688 26.5511 81.7827 26.2045 81.7827 25.8409V24.6136C81.7259 24.6818 81.6009 24.7443 81.4077 24.8011C81.2183 24.8542 80.9986 24.9015 80.7486 24.9432C80.5024 24.9811 80.2618 25.0152 80.027 25.0455C79.7959 25.072 79.6084 25.0947 79.4645 25.1136C79.116 25.1591 78.7902 25.233 78.4872 25.3352C78.188 25.4337 77.9455 25.5833 77.7599 25.7841C77.5781 25.9811 77.4872 26.25 77.4872 26.5909C77.4872 27.0568 77.6596 27.4091 78.0043 27.6477C78.3527 27.8826 78.794 28 79.3281 28ZM85.7528 29V17.3636H87.0938V21.6591H87.2074C87.3059 21.5076 87.4422 21.3144 87.6165 21.0795C87.7945 20.8409 88.0483 20.6288 88.3778 20.4432C88.7112 20.2538 89.1619 20.1591 89.7301 20.1591C90.465 20.1591 91.1127 20.3428 91.6733 20.7102C92.2339 21.0777 92.6714 21.5985 92.9858 22.2727C93.3002 22.947 93.4574 23.7424 93.4574 24.6591C93.4574 25.5833 93.3002 26.3845 92.9858 27.0625C92.6714 27.7367 92.2358 28.2595 91.679 28.6307C91.1222 28.9981 90.4801 29.1818 89.7528 29.1818C89.1922 29.1818 88.7434 29.089 88.4062 28.9034C88.0691 28.714 87.8097 28.5 87.6278 28.2614C87.446 28.0189 87.3059 27.8182 87.2074 27.6591H87.0483V29H85.7528ZM87.071 24.6364C87.071 25.2955 87.1676 25.8769 87.3608 26.3807C87.554 26.8807 87.8362 27.2727 88.2074 27.5568C88.5786 27.8371 89.0331 27.9773 89.571 27.9773C90.1316 27.9773 90.5994 27.8295 90.9744 27.5341C91.3532 27.2348 91.6373 26.8333 91.8267 26.3295C92.0199 25.822 92.1165 25.2576 92.1165 24.6364C92.1165 24.0227 92.0218 23.4697 91.8324 22.9773C91.6468 22.4811 91.3646 22.089 90.9858 21.8011C90.6108 21.5095 90.1392 21.3636 89.571 21.3636C89.0256 21.3636 88.5672 21.5019 88.196 21.7784C87.8248 22.0511 87.5445 22.4337 87.3551 22.9261C87.1657 23.4148 87.071 23.9848 87.071 24.6364ZM98.0767 29.2045C97.5237 29.2045 97.0218 29.1004 96.571 28.892C96.1203 28.6799 95.7623 28.375 95.4972 27.9773C95.232 27.5758 95.0994 27.0909 95.0994 26.5227C95.0994 26.0227 95.1979 25.6174 95.3949 25.3068C95.5919 24.9924 95.8551 24.7462 96.1847 24.5682C96.5142 24.3902 96.8778 24.2576 97.2756 24.1705C97.6771 24.0795 98.0805 24.0076 98.4858 23.9545C99.0161 23.8864 99.446 23.8352 99.7756 23.8011C100.109 23.7633 100.351 23.7008 100.503 23.6136C100.658 23.5265 100.736 23.375 100.736 23.1591V23.1136C100.736 22.553 100.582 22.1174 100.276 21.8068C99.9725 21.4962 99.5123 21.3409 98.8949 21.3409C98.2547 21.3409 97.7528 21.4811 97.3892 21.7614C97.0256 22.0417 96.7699 22.3409 96.6222 22.6591L95.3494 22.2045C95.5767 21.6742 95.8797 21.2614 96.2585 20.9659C96.6411 20.6667 97.0578 20.4583 97.5085 20.3409C97.9631 20.2197 98.41 20.1591 98.8494 20.1591C99.1297 20.1591 99.4517 20.1932 99.8153 20.2614C100.183 20.3258 100.537 20.4602 100.878 20.6648C101.223 20.8693 101.509 21.178 101.736 21.5909C101.963 22.0038 102.077 22.5568 102.077 23.25V29H100.736V27.8182H100.668C100.577 28.0076 100.425 28.2102 100.213 28.4261C100.001 28.642 99.7188 28.8258 99.3665 28.9773C99.0142 29.1288 98.5843 29.2045 98.0767 29.2045ZM98.2812 28C98.8116 28 99.2585 27.8958 99.6222 27.6875C99.9896 27.4792 100.266 27.2102 100.452 26.8807C100.641 26.5511 100.736 26.2045 100.736 25.8409V24.6136C100.679 24.6818 100.554 24.7443 100.361 24.8011C100.171 24.8542 99.9517 24.9015 99.7017 24.9432C99.4555 24.9811 99.215 25.0152 98.9801 25.0455C98.7491 25.072 98.5616 25.0947 98.4176 25.1136C98.0691 25.1591 97.7434 25.233 97.4403 25.3352C97.1411 25.4337 96.8987 25.5833 96.7131 25.7841C96.5313 25.9811 96.4403 26.25 96.4403 26.5909C96.4403 27.0568 96.6127 27.4091 96.9574 27.6477C97.3059 27.8826 97.7472 28 98.2812 28ZM110.706 22.2273L109.501 22.5682C109.426 22.3674 109.314 22.1723 109.166 21.983C109.022 21.7898 108.825 21.6307 108.575 21.5057C108.325 21.3807 108.005 21.3182 107.615 21.3182C107.081 21.3182 106.636 21.4413 106.28 21.6875C105.928 21.9299 105.751 22.2386 105.751 22.6136C105.751 22.947 105.873 23.2102 106.115 23.4034C106.357 23.5966 106.736 23.7576 107.251 23.8864L108.547 24.2045C109.327 24.3939 109.909 24.6837 110.291 25.0739C110.674 25.4602 110.865 25.9583 110.865 26.5682C110.865 27.0682 110.721 27.5152 110.433 27.9091C110.149 28.303 109.751 28.6136 109.24 28.8409C108.729 29.0682 108.134 29.1818 107.456 29.1818C106.566 29.1818 105.829 28.9886 105.246 28.6023C104.662 28.2159 104.293 27.6515 104.138 26.9091L105.411 26.5909C105.532 27.0606 105.761 27.4129 106.098 27.6477C106.439 27.8826 106.884 28 107.433 28C108.058 28 108.554 27.8674 108.922 27.6023C109.293 27.3333 109.479 27.0114 109.479 26.6364C109.479 26.3333 109.373 26.0795 109.161 25.875C108.948 25.6667 108.623 25.5114 108.183 25.4091L106.729 25.0682C105.929 24.8788 105.342 24.5852 104.967 24.1875C104.596 23.786 104.411 23.2841 104.411 22.6818C104.411 22.1894 104.549 21.7538 104.825 21.375C105.106 20.9962 105.486 20.6989 105.967 20.483C106.452 20.267 107.001 20.1591 107.615 20.1591C108.479 20.1591 109.157 20.3485 109.649 20.7273C110.145 21.1061 110.498 21.6061 110.706 22.2273ZM116.543 29.1818C115.702 29.1818 114.976 28.9962 114.366 28.625C113.76 28.25 113.293 27.7273 112.963 27.0568C112.637 26.3826 112.474 25.5985 112.474 24.7045C112.474 23.8106 112.637 23.0227 112.963 22.3409C113.293 21.6553 113.751 21.1212 114.338 20.7386C114.929 20.3523 115.618 20.1591 116.406 20.1591C116.861 20.1591 117.31 20.2348 117.753 20.3864C118.196 20.5379 118.599 20.7841 118.963 21.125C119.327 21.4621 119.616 21.9091 119.832 22.4659C120.048 23.0227 120.156 23.7083 120.156 24.5227V25.0909H113.429V23.9318H118.793C118.793 23.4394 118.694 23 118.497 22.6136C118.304 22.2273 118.027 21.9223 117.668 21.6989C117.312 21.4754 116.891 21.3636 116.406 21.3636C115.872 21.3636 115.41 21.4962 115.02 21.7614C114.634 22.0227 114.336 22.3636 114.128 22.7841C113.92 23.2045 113.815 23.6553 113.815 24.1364V24.9091C113.815 25.5682 113.929 26.1269 114.156 26.5852C114.387 27.0398 114.707 27.3864 115.116 27.625C115.526 27.8598 116.001 27.9773 116.543 27.9773C116.895 27.9773 117.213 27.928 117.497 27.8295C117.785 27.7273 118.033 27.5758 118.241 27.375C118.45 27.1705 118.611 26.9167 118.724 26.6136L120.02 26.9773C119.884 27.4167 119.654 27.803 119.332 28.1364C119.01 28.4659 118.613 28.7235 118.139 28.9091C117.666 29.0909 117.134 29.1818 116.543 29.1818Z" fill="#9DA6BA"/>
<path fill-rule="evenodd" clip-rule="evenodd" d="M21 14C19.3431 14 18 15.3431 18 17V31C18 32.6569 19.3431 34 21 34H33C34.6569 34 36 32.6569 36 31V19.7426C36 18.947 35.6839 18.1839 35.1213 17.6213L32.3787 14.8787C31.8161 14.3161 31.053 14 30.2574 14H21ZM30 16.2071V18C30 19.1046 30.8954 20 32 20H33.7929C34.2383 20 34.4614 19.4614 34.1464 19.1464L30.8536 15.8535C30.5386 15.5386 30 15.7617 30 16.2071Z" fill="#9DA6BA"/>
</svg>
