<svg width="346" height="56" viewBox="0 0 346 56" fill="none" xmlns="http://www.w3.org/2000/svg">
<rect x="0.5" y="0.5" width="345" height="55" rx="27.5" fill="white"/>
<path d="M36 28C38.7614 28 41 25.7614 41 23C41 20.2386 38.7614 18 36 18C33.2386 18 31 20.2386 31 23C31 25.7614 33.2386 28 36 28Z" fill="#BBBEC7"/>
<path d="M36.0002 30.5C30.9902 30.5 26.9102 33.86 26.9102 38C26.9102 38.28 27.1302 38.5 27.4102 38.5H44.5902C44.8702 38.5 45.0902 38.28 45.0902 38C45.0902 33.86 41.0102 30.5 36.0002 30.5Z" fill="#BBBEC7"/>
<path d="M64.4766 33H61.375V23.1875H58.3125V21.75H67.5391V23.1875H64.4766V33ZM76.1328 23.9766L72.8516 31.9141C72.4766 32.8203 72.0573 33.7161 71.5938 34.6016C71.1354 35.4922 70.638 36.3464 70.1016 37.1641L69.0703 36.5391C69.2005 36.3047 69.3542 36.0339 69.5312 35.7266C69.7083 35.4193 69.8828 35.1016 70.0547 34.7734C70.2266 34.4453 70.3854 34.1198 70.5312 33.7969C70.6771 33.4792 70.7891 33.1875 70.8672 32.9219L66.9219 23.9766H69.5625L72.2422 30.0781L74.3047 23.9766H76.1328ZM86.8359 28.4688C86.8359 29.125 86.737 29.7396 86.5391 30.3125C86.3411 30.8854 86.0547 31.3854 85.6797 31.8125C85.3047 32.2344 84.8464 32.5677 84.3047 32.8125C83.763 33.0573 83.1484 33.1797 82.4609 33.1797C81.9349 33.1797 81.4505 33.0781 81.0078 32.875C80.5703 32.6667 80.1953 32.349 79.8828 31.9219V37.1641H77.2422V23.9766H78.2578L79.4297 25.9375C79.5443 25.6094 79.7005 25.3125 79.8984 25.0469C80.1016 24.776 80.3333 24.5469 80.5938 24.3594C80.8594 24.1667 81.1484 24.0182 81.4609 23.9141C81.7786 23.8099 82.112 23.7578 82.4609 23.7578C83.1484 23.7578 83.763 23.8802 84.3047 24.125C84.8464 24.3698 85.3047 24.7057 85.6797 25.1328C86.0547 25.5547 86.3411 26.0521 86.5391 26.625C86.737 27.1979 86.8359 27.8125 86.8359 28.4688ZM84.1562 28.4688C84.1562 28.2396 84.1432 27.9974 84.1172 27.7422C84.0964 27.4818 84.0573 27.224 84 26.9688C83.9427 26.7135 83.862 26.4688 83.7578 26.2344C83.6589 26 83.5312 25.7943 83.375 25.6172C83.2188 25.4349 83.0286 25.2917 82.8047 25.1875C82.5859 25.0781 82.3307 25.0234 82.0391 25.0234C81.737 25.0234 81.474 25.0755 81.25 25.1797C81.0312 25.2839 80.8411 25.4271 80.6797 25.6094C80.5234 25.7865 80.3932 25.9922 80.2891 26.2266C80.1901 26.4557 80.112 26.6979 80.0547 26.9531C79.9974 27.2083 79.9557 27.4661 79.9297 27.7266C79.9089 27.987 79.8984 28.2344 79.8984 28.4688C79.8984 28.6771 79.9141 28.9089 79.9453 29.1641C79.9766 29.4141 80.026 29.6667 80.0938 29.9219C80.1615 30.1771 80.25 30.4245 80.3594 30.6641C80.4688 30.9036 80.6016 31.1172 80.7578 31.3047C80.9193 31.4922 81.1042 31.6432 81.3125 31.7578C81.526 31.8672 81.7682 31.9219 82.0391 31.9219C82.3359 31.9219 82.5938 31.8698 82.8125 31.7656C83.0312 31.6562 83.2188 31.513 83.375 31.3359C83.5312 31.1536 83.6589 30.9453 83.7578 30.7109C83.862 30.4766 83.9427 30.2318 84 29.9766C84.0573 29.7214 84.0964 29.4635 84.1172 29.2031C84.1432 28.9427 84.1562 28.6979 84.1562 28.4688ZM90.7109 28.7188C91.0339 28.7917 91.3568 28.849 91.6797 28.8906C92.0026 28.9323 92.3281 28.9531 92.6562 28.9531C93 28.9531 93.3177 28.9219 93.6094 28.8594C93.9062 28.7917 94.1615 28.6823 94.375 28.5312C94.5938 28.375 94.7656 28.1693 94.8906 27.9141C95.0156 27.6589 95.0781 27.3411 95.0781 26.9609C95.0781 26.6536 95.0365 26.3724 94.9531 26.1172C94.8698 25.862 94.7448 25.6432 94.5781 25.4609C94.4167 25.2786 94.2161 25.138 93.9766 25.0391C93.737 24.9349 93.4583 24.8828 93.1406 24.8828C92.8438 24.8828 92.5755 24.9375 92.3359 25.0469C92.1016 25.1562 91.8932 25.3047 91.7109 25.4922C91.5339 25.6745 91.3802 25.888 91.25 26.1328C91.125 26.3776 91.0208 26.6328 90.9375 26.8984C90.8542 27.1641 90.7943 27.4323 90.7578 27.7031C90.7214 27.974 90.7031 28.2292 90.7031 28.4688C90.7031 28.5104 90.7031 28.5521 90.7031 28.5938C90.7031 28.6354 90.7057 28.6771 90.7109 28.7188ZM97.2188 26.9375C97.2188 27.3073 97.1589 27.638 97.0391 27.9297C96.9193 28.2161 96.7552 28.4688 96.5469 28.6875C96.3438 28.9062 96.1068 29.0911 95.8359 29.2422C95.5651 29.3932 95.276 29.5182 94.9688 29.6172C94.6615 29.7109 94.3438 29.7786 94.0156 29.8203C93.6927 29.862 93.3776 29.8828 93.0703 29.8828C92.6797 29.8828 92.2943 29.8568 91.9141 29.8047C91.5339 29.7474 91.1589 29.6589 90.7891 29.5391C90.8464 29.8828 90.9375 30.2109 91.0625 30.5234C91.1875 30.8307 91.3542 31.1016 91.5625 31.3359C91.7708 31.5651 92.026 31.7474 92.3281 31.8828C92.6354 32.0182 92.9974 32.0859 93.4141 32.0859C93.6901 32.0859 93.9531 32.0443 94.2031 31.9609C94.4531 31.8776 94.6823 31.7604 94.8906 31.6094C95.099 31.4583 95.2812 31.2786 95.4375 31.0703C95.599 30.862 95.7292 30.6302 95.8281 30.375L96.9688 30.7969C96.7969 31.2083 96.5599 31.5651 96.2578 31.8672C95.9609 32.1641 95.6224 32.4115 95.2422 32.6094C94.8672 32.8021 94.4661 32.9453 94.0391 33.0391C93.6172 33.1328 93.1979 33.1797 92.7812 33.1797C92.0938 33.1797 91.4583 33.0651 90.875 32.8359C90.2917 32.6016 89.7891 32.276 89.3672 31.8594C88.9453 31.4427 88.6146 30.9453 88.375 30.3672C88.1354 29.7891 88.0156 29.1562 88.0156 28.4688C88.0156 27.7812 88.1354 27.1484 88.375 26.5703C88.6146 25.9922 88.9453 25.4948 89.3672 25.0781C89.7891 24.6615 90.2917 24.3385 90.875 24.1094C91.4583 23.875 92.0938 23.7578 92.7812 23.7578C93.1146 23.7578 93.4557 23.7812 93.8047 23.8281C94.1536 23.875 94.4922 23.9505 94.8203 24.0547C95.1484 24.1536 95.4583 24.2839 95.75 24.4453C96.0417 24.6068 96.2943 24.8073 96.5078 25.0469C96.7266 25.2812 96.8984 25.5547 97.0234 25.8672C97.1536 26.1797 97.2188 26.5365 97.2188 26.9375ZM112.625 27.8281C112.625 28.4375 112.549 29.0729 112.398 29.7344C112.253 30.3958 112.047 31.0443 111.781 31.6797C111.516 32.3151 111.198 32.9115 110.828 33.4688C110.458 34.0312 110.052 34.5156 109.609 34.9219L108.617 34.3828C108.758 34.1224 108.891 33.8307 109.016 33.5078C109.141 33.1849 109.253 32.8438 109.352 32.4844C109.456 32.1198 109.547 31.7448 109.625 31.3594C109.708 30.974 109.776 30.5938 109.828 30.2188C109.885 29.8385 109.927 29.4714 109.953 29.1172C109.984 28.7578 110 28.4245 110 28.1172C110 27.9141 109.992 27.6979 109.977 27.4688C109.961 27.2344 109.927 27.0026 109.875 26.7734C109.828 26.5391 109.763 26.3151 109.68 26.1016C109.596 25.888 109.484 25.7005 109.344 25.5391C109.208 25.3776 109.042 25.2474 108.844 25.1484C108.651 25.0495 108.422 25 108.156 25C107.896 25 107.664 25.0599 107.461 25.1797C107.258 25.2943 107.078 25.4479 106.922 25.6406C106.766 25.8281 106.63 26.0443 106.516 26.2891C106.406 26.5339 106.315 26.7865 106.242 27.0469C106.174 27.3021 106.125 27.5547 106.094 27.8047C106.062 28.0547 106.047 28.2786 106.047 28.4766V33H103.398V20.6562H106.039V25.3047C106.378 24.8099 106.792 24.4297 107.281 24.1641C107.776 23.8932 108.323 23.7578 108.922 23.7578C109.547 23.7578 110.091 23.8594 110.555 24.0625C111.018 24.2656 111.404 24.5495 111.711 24.9141C112.018 25.2734 112.247 25.7031 112.398 26.2031C112.549 26.6979 112.625 27.2396 112.625 27.8281ZM116.539 28.7188C116.862 28.7917 117.185 28.849 117.508 28.8906C117.831 28.9323 118.156 28.9531 118.484 28.9531C118.828 28.9531 119.146 28.9219 119.438 28.8594C119.734 28.7917 119.99 28.6823 120.203 28.5312C120.422 28.375 120.594 28.1693 120.719 27.9141C120.844 27.6589 120.906 27.3411 120.906 26.9609C120.906 26.6536 120.865 26.3724 120.781 26.1172C120.698 25.862 120.573 25.6432 120.406 25.4609C120.245 25.2786 120.044 25.138 119.805 25.0391C119.565 24.9349 119.286 24.8828 118.969 24.8828C118.672 24.8828 118.404 24.9375 118.164 25.0469C117.93 25.1562 117.721 25.3047 117.539 25.4922C117.362 25.6745 117.208 25.888 117.078 26.1328C116.953 26.3776 116.849 26.6328 116.766 26.8984C116.682 27.1641 116.622 27.4323 116.586 27.7031C116.549 27.974 116.531 28.2292 116.531 28.4688C116.531 28.5104 116.531 28.5521 116.531 28.5938C116.531 28.6354 116.534 28.6771 116.539 28.7188ZM123.047 26.9375C123.047 27.3073 122.987 27.638 122.867 27.9297C122.747 28.2161 122.583 28.4688 122.375 28.6875C122.172 28.9062 121.935 29.0911 121.664 29.2422C121.393 29.3932 121.104 29.5182 120.797 29.6172C120.49 29.7109 120.172 29.7786 119.844 29.8203C119.521 29.862 119.206 29.8828 118.898 29.8828C118.508 29.8828 118.122 29.8568 117.742 29.8047C117.362 29.7474 116.987 29.6589 116.617 29.5391C116.674 29.8828 116.766 30.2109 116.891 30.5234C117.016 30.8307 117.182 31.1016 117.391 31.3359C117.599 31.5651 117.854 31.7474 118.156 31.8828C118.464 32.0182 118.826 32.0859 119.242 32.0859C119.518 32.0859 119.781 32.0443 120.031 31.9609C120.281 31.8776 120.51 31.7604 120.719 31.6094C120.927 31.4583 121.109 31.2786 121.266 31.0703C121.427 30.862 121.557 30.6302 121.656 30.375L122.797 30.7969C122.625 31.2083 122.388 31.5651 122.086 31.8672C121.789 32.1641 121.451 32.4115 121.07 32.6094C120.695 32.8021 120.294 32.9453 119.867 33.0391C119.445 33.1328 119.026 33.1797 118.609 33.1797C117.922 33.1797 117.286 33.0651 116.703 32.8359C116.12 32.6016 115.617 32.276 115.195 31.8594C114.773 31.4427 114.443 30.9453 114.203 30.3672C113.964 29.7891 113.844 29.1562 113.844 28.4688C113.844 27.7812 113.964 27.1484 114.203 26.5703C114.443 25.9922 114.773 25.4948 115.195 25.0781C115.617 24.6615 116.12 24.3385 116.703 24.1094C117.286 23.875 117.922 23.7578 118.609 23.7578C118.943 23.7578 119.284 23.7812 119.633 23.8281C119.982 23.875 120.32 23.9505 120.648 24.0547C120.977 24.1536 121.286 24.2839 121.578 24.4453C121.87 24.6068 122.122 24.8073 122.336 25.0469C122.555 25.2812 122.727 25.5547 122.852 25.8672C122.982 26.1797 123.047 26.5365 123.047 26.9375ZM132.367 24.7734L130.883 27.2344C130.82 27.026 130.74 26.7917 130.641 26.5312C130.542 26.2708 130.419 26.0286 130.273 25.8047C130.128 25.5755 129.953 25.3854 129.75 25.2344C129.547 25.0781 129.312 25 129.047 25C128.802 25 128.589 25.0625 128.406 25.1875C128.229 25.3125 128.078 25.4766 127.953 25.6797C127.828 25.8776 127.724 26.1042 127.641 26.3594C127.562 26.6094 127.5 26.8646 127.453 27.125C127.411 27.3802 127.383 27.6276 127.367 27.8672C127.352 28.1016 127.344 28.3047 127.344 28.4766V33H124.695V23.9766H125.711L126.781 26.0781C126.927 25.7396 127.094 25.4297 127.281 25.1484C127.469 24.862 127.685 24.6172 127.93 24.4141C128.174 24.2057 128.451 24.0443 128.758 23.9297C129.07 23.8151 129.422 23.7578 129.812 23.7578C130.016 23.7578 130.242 23.776 130.492 23.8125C130.742 23.8438 130.987 23.901 131.227 23.9844C131.466 24.0625 131.688 24.1667 131.891 24.2969C132.094 24.4271 132.253 24.5859 132.367 24.7734ZM135.414 28.7188C135.737 28.7917 136.06 28.849 136.383 28.8906C136.706 28.9323 137.031 28.9531 137.359 28.9531C137.703 28.9531 138.021 28.9219 138.312 28.8594C138.609 28.7917 138.865 28.6823 139.078 28.5312C139.297 28.375 139.469 28.1693 139.594 27.9141C139.719 27.6589 139.781 27.3411 139.781 26.9609C139.781 26.6536 139.74 26.3724 139.656 26.1172C139.573 25.862 139.448 25.6432 139.281 25.4609C139.12 25.2786 138.919 25.138 138.68 25.0391C138.44 24.9349 138.161 24.8828 137.844 24.8828C137.547 24.8828 137.279 24.9375 137.039 25.0469C136.805 25.1562 136.596 25.3047 136.414 25.4922C136.237 25.6745 136.083 25.888 135.953 26.1328C135.828 26.3776 135.724 26.6328 135.641 26.8984C135.557 27.1641 135.497 27.4323 135.461 27.7031C135.424 27.974 135.406 28.2292 135.406 28.4688C135.406 28.5104 135.406 28.5521 135.406 28.5938C135.406 28.6354 135.409 28.6771 135.414 28.7188ZM141.922 26.9375C141.922 27.3073 141.862 27.638 141.742 27.9297C141.622 28.2161 141.458 28.4688 141.25 28.6875C141.047 28.9062 140.81 29.0911 140.539 29.2422C140.268 29.3932 139.979 29.5182 139.672 29.6172C139.365 29.7109 139.047 29.7786 138.719 29.8203C138.396 29.862 138.081 29.8828 137.773 29.8828C137.383 29.8828 136.997 29.8568 136.617 29.8047C136.237 29.7474 135.862 29.6589 135.492 29.5391C135.549 29.8828 135.641 30.2109 135.766 30.5234C135.891 30.8307 136.057 31.1016 136.266 31.3359C136.474 31.5651 136.729 31.7474 137.031 31.8828C137.339 32.0182 137.701 32.0859 138.117 32.0859C138.393 32.0859 138.656 32.0443 138.906 31.9609C139.156 31.8776 139.385 31.7604 139.594 31.6094C139.802 31.4583 139.984 31.2786 140.141 31.0703C140.302 30.862 140.432 30.6302 140.531 30.375L141.672 30.7969C141.5 31.2083 141.263 31.5651 140.961 31.8672C140.664 32.1641 140.326 32.4115 139.945 32.6094C139.57 32.8021 139.169 32.9453 138.742 33.0391C138.32 33.1328 137.901 33.1797 137.484 33.1797C136.797 33.1797 136.161 33.0651 135.578 32.8359C134.995 32.6016 134.492 32.276 134.07 31.8594C133.648 31.4427 133.318 30.9453 133.078 30.3672C132.839 29.7891 132.719 29.1562 132.719 28.4688C132.719 27.7812 132.839 27.1484 133.078 26.5703C133.318 25.9922 133.648 25.4948 134.07 25.0781C134.492 24.6615 134.995 24.3385 135.578 24.1094C136.161 23.875 136.797 23.7578 137.484 23.7578C137.818 23.7578 138.159 23.7812 138.508 23.8281C138.857 23.875 139.195 23.9505 139.523 24.0547C139.852 24.1536 140.161 24.2839 140.453 24.4453C140.745 24.6068 140.997 24.8073 141.211 25.0469C141.43 25.2812 141.602 25.5547 141.727 25.8672C141.857 26.1797 141.922 26.5365 141.922 26.9375Z" fill="#C0C3D0"/>
<rect x="0.5" y="0.5" width="345" height="55" rx="27.5" stroke="#EAEBF7"/>
</svg>
