<svg width="170" height="97" viewBox="0 0 170 97" fill="none" xmlns="http://www.w3.org/2000/svg">
<rect width="170" height="97" rx="12" fill="#E7E6FB"/>
<path d="M71.142 74V65.2727H72.8409V74H71.142ZM72 63.9261C71.7045 63.9261 71.4508 63.8277 71.2386 63.6307C71.0303 63.4299 70.9261 63.1913 70.9261 62.9148C70.9261 62.6345 71.0303 62.3958 71.2386 62.1989C71.4508 61.9981 71.7045 61.8977 72 61.8977C72.2955 61.8977 72.5473 61.9981 72.7557 62.1989C72.9678 62.3958 73.0739 62.6345 73.0739 62.9148C73.0739 63.1913 72.9678 63.4299 72.7557 63.6307C72.5473 63.8277 72.2955 63.9261 72 63.9261ZM76.8253 68.8182V74H75.1264V65.2727H76.7571V66.6932H76.8651C77.0658 66.2311 77.3802 65.8598 77.8082 65.5795C78.2401 65.2992 78.7836 65.1591 79.4389 65.1591C80.0336 65.1591 80.5545 65.2841 81.0014 65.5341C81.4484 65.7803 81.795 66.1477 82.0412 66.6364C82.2874 67.125 82.4105 67.7292 82.4105 68.4489V74H80.7116V68.6534C80.7116 68.0208 80.5469 67.5265 80.2173 67.1705C79.8878 66.8106 79.4351 66.6307 78.8594 66.6307C78.4654 66.6307 78.1151 66.7159 77.8082 66.8864C77.5052 67.0568 77.2647 67.3068 77.0866 67.6364C76.9124 67.9621 76.8253 68.3561 76.8253 68.8182ZM92.9517 74.1591C92.1714 74.1591 91.4744 74.0246 90.8608 73.7557C90.2509 73.4867 89.768 73.1136 89.4119 72.6364C89.0597 72.1553 88.8703 71.5985 88.8438 70.9659H90.6278C90.6506 71.3106 90.7661 71.6098 90.9744 71.8636C91.1866 72.1136 91.4631 72.3068 91.804 72.4432C92.1449 72.5795 92.5237 72.6477 92.9403 72.6477C93.3987 72.6477 93.804 72.5682 94.1562 72.4091C94.5123 72.25 94.7907 72.0284 94.9915 71.7443C95.1922 71.4564 95.2926 71.125 95.2926 70.75C95.2926 70.3598 95.1922 70.017 94.9915 69.7216C94.7945 69.4223 94.5047 69.1875 94.1222 69.017C93.7434 68.8466 93.285 68.7614 92.7472 68.7614H91.7642V67.3295H92.7472C93.179 67.3295 93.5578 67.2519 93.8835 67.0966C94.2131 66.9413 94.4706 66.7254 94.6562 66.4489C94.8419 66.1686 94.9347 65.8409 94.9347 65.4659C94.9347 65.1061 94.8532 64.7936 94.6903 64.5284C94.5313 64.2595 94.304 64.0492 94.0085 63.8977C93.7169 63.7462 93.3722 63.6705 92.9744 63.6705C92.5956 63.6705 92.2415 63.7405 91.9119 63.8807C91.5862 64.017 91.321 64.214 91.1165 64.4716C90.9119 64.7254 90.8021 65.0303 90.7869 65.3864H89.0881C89.107 64.7576 89.2926 64.2045 89.6449 63.7273C90.0009 63.25 90.4706 62.8769 91.054 62.608C91.6373 62.339 92.285 62.2045 92.9972 62.2045C93.7434 62.2045 94.3873 62.3504 94.929 62.642C95.4744 62.9299 95.8949 63.3144 96.1903 63.7955C96.4896 64.2765 96.6373 64.803 96.6335 65.375C96.6373 66.0265 96.4555 66.5795 96.0881 67.0341C95.7244 67.4886 95.2396 67.7936 94.6335 67.9489V68.0398C95.4063 68.1572 96.0047 68.464 96.429 68.9602C96.857 69.4564 97.0691 70.072 97.0653 70.8068C97.0691 71.447 96.8911 72.0208 96.5312 72.5284C96.1752 73.036 95.6884 73.4356 95.071 73.7273C94.4536 74.0152 93.7472 74.1591 92.9517 74.1591ZM103.47 74V65.2727H105.101V66.6932H105.209C105.391 66.2121 105.688 65.8371 106.101 65.5682C106.514 65.2955 107.008 65.1591 107.584 65.1591C108.167 65.1591 108.656 65.2955 109.05 65.5682C109.447 65.8409 109.741 66.2159 109.93 66.6932H110.021C110.23 66.2273 110.561 65.8561 111.016 65.5795C111.47 65.2992 112.012 65.1591 112.641 65.1591C113.432 65.1591 114.078 65.4072 114.578 65.9034C115.082 66.3996 115.334 67.1477 115.334 68.1477V74H113.635V68.3068C113.635 67.7159 113.474 67.2879 113.152 67.0227C112.83 66.7576 112.446 66.625 111.999 66.625C111.446 66.625 111.016 66.7955 110.709 67.1364C110.402 67.4735 110.249 67.9072 110.249 68.4375V74H108.555V68.1989C108.555 67.7254 108.408 67.3447 108.112 67.0568C107.817 66.7689 107.432 66.625 106.959 66.625C106.637 66.625 106.339 66.7102 106.067 66.8807C105.798 67.0473 105.58 67.2803 105.413 67.5795C105.25 67.8788 105.169 68.2254 105.169 68.6193V74H103.47ZM117.611 74V65.2727H119.31V74H117.611ZM118.469 63.9261C118.173 63.9261 117.92 63.8277 117.707 63.6307C117.499 63.4299 117.395 63.1913 117.395 62.9148C117.395 62.6345 117.499 62.3958 117.707 62.1989C117.92 61.9981 118.173 61.8977 118.469 61.8977C118.764 61.8977 119.016 61.9981 119.224 62.1989C119.437 62.3958 119.543 62.6345 119.543 62.9148C119.543 63.1913 119.437 63.4299 119.224 63.6307C119.016 63.8277 118.764 63.9261 118.469 63.9261ZM123.294 68.8182V74H121.595V65.2727H123.226V66.6932H123.334C123.535 66.2311 123.849 65.8598 124.277 65.5795C124.709 65.2992 125.252 65.1591 125.908 65.1591C126.502 65.1591 127.023 65.2841 127.47 65.5341C127.917 65.7803 128.264 66.1477 128.51 66.6364C128.756 67.125 128.879 67.7292 128.879 68.4489V74H127.18V68.6534C127.18 68.0208 127.016 67.5265 126.686 67.1705C126.357 66.8106 125.904 66.6307 125.328 66.6307C124.934 66.6307 124.584 66.7159 124.277 66.8864C123.974 67.0568 123.733 67.3068 123.555 67.6364C123.381 67.9621 123.294 68.3561 123.294 68.8182Z" fill="#081131"/>
</svg>
