<svg width="221" height="48" viewBox="0 0 221 48" fill="none" xmlns="http://www.w3.org/2000/svg">
<rect width="221" height="48" rx="6" fill="white"/>
<path d="M59.7727 21H58.3636C58.2803 20.5947 58.1345 20.2386 57.9261 19.9318C57.7216 19.625 57.4716 19.3674 57.1761 19.1591C56.8845 18.947 56.5606 18.7879 56.2045 18.6818C55.8485 18.5758 55.4773 18.5227 55.0909 18.5227C54.3864 18.5227 53.7481 18.7008 53.1761 19.0568C52.608 19.4129 52.1553 19.9375 51.8182 20.6307C51.4848 21.3239 51.3182 22.1742 51.3182 23.1818C51.3182 24.1894 51.4848 25.0398 51.8182 25.733C52.1553 26.4261 52.608 26.9508 53.1761 27.3068C53.7481 27.6629 54.3864 27.8409 55.0909 27.8409C55.4773 27.8409 55.8485 27.7879 56.2045 27.6818C56.5606 27.5758 56.8845 27.4186 57.1761 27.2102C57.4716 26.9981 57.7216 26.7386 57.9261 26.4318C58.1345 26.1212 58.2803 25.7652 58.3636 25.3636H59.7727C59.6667 25.9583 59.4735 26.4905 59.1932 26.9602C58.9129 27.4299 58.5644 27.8295 58.1477 28.1591C57.7311 28.4848 57.2633 28.733 56.7443 28.9034C56.2292 29.0739 55.678 29.1591 55.0909 29.1591C54.0985 29.1591 53.2159 28.9167 52.4432 28.4318C51.6705 27.947 51.0625 27.2576 50.6193 26.3636C50.1761 25.4697 49.9545 24.4091 49.9545 23.1818C49.9545 21.9545 50.1761 20.8939 50.6193 20C51.0625 19.1061 51.6705 18.4167 52.4432 17.9318C53.2159 17.447 54.0985 17.2045 55.0909 17.2045C55.678 17.2045 56.2292 17.2898 56.7443 17.4602C57.2633 17.6307 57.7311 17.8807 58.1477 18.2102C58.5644 18.536 58.9129 18.9337 59.1932 19.4034C59.4735 19.8693 59.6667 20.4015 59.7727 21ZM64.4361 29.2045C63.883 29.2045 63.3812 29.1004 62.9304 28.892C62.4796 28.6799 62.1217 28.375 61.8565 27.9773C61.5914 27.5758 61.4588 27.0909 61.4588 26.5227C61.4588 26.0227 61.5573 25.6174 61.7543 25.3068C61.9512 24.9924 62.2145 24.7462 62.544 24.5682C62.8736 24.3902 63.2372 24.2576 63.6349 24.1705C64.0365 24.0795 64.4399 24.0076 64.8452 23.9545C65.3755 23.8864 65.8054 23.8352 66.1349 23.8011C66.4683 23.7633 66.7107 23.7008 66.8622 23.6136C67.0175 23.5265 67.0952 23.375 67.0952 23.1591V23.1136C67.0952 22.553 66.9418 22.1174 66.6349 21.8068C66.3319 21.4962 65.8717 21.3409 65.2543 21.3409C64.6141 21.3409 64.1122 21.4811 63.7486 21.7614C63.3849 22.0417 63.1293 22.3409 62.9815 22.6591L61.7088 22.2045C61.9361 21.6742 62.2391 21.2614 62.6179 20.9659C63.0005 20.6667 63.4171 20.4583 63.8679 20.3409C64.3224 20.2197 64.7694 20.1591 65.2088 20.1591C65.4891 20.1591 65.8111 20.1932 66.1747 20.2614C66.5421 20.3258 66.8963 20.4602 67.2372 20.6648C67.5819 20.8693 67.8679 21.178 68.0952 21.5909C68.3224 22.0038 68.4361 22.5568 68.4361 23.25V29H67.0952V27.8182H67.027C66.9361 28.0076 66.7846 28.2102 66.5724 28.4261C66.3603 28.642 66.0781 28.8258 65.7259 28.9773C65.3736 29.1288 64.9437 29.2045 64.4361 29.2045ZM64.6406 28C65.1709 28 65.6179 27.8958 65.9815 27.6875C66.349 27.4792 66.6255 27.2102 66.8111 26.8807C67.0005 26.5511 67.0952 26.2045 67.0952 25.8409V24.6136C67.0384 24.6818 66.9134 24.7443 66.7202 24.8011C66.5308 24.8542 66.3111 24.9015 66.0611 24.9432C65.8149 24.9811 65.5743 25.0152 65.3395 25.0455C65.1084 25.072 64.9209 25.0947 64.777 25.1136C64.4285 25.1591 64.1027 25.233 63.7997 25.3352C63.5005 25.4337 63.258 25.5833 63.0724 25.7841C62.8906 25.9811 62.7997 26.25 62.7997 26.5909C62.7997 27.0568 62.9721 27.4091 63.3168 27.6477C63.6652 27.8826 64.1065 28 64.6406 28ZM72.2244 17.3636V29H70.8835V17.3636H72.2244ZM78.3395 29.1818C77.4986 29.1818 76.7732 28.9962 76.1634 28.625C75.5573 28.25 75.0895 27.7273 74.7599 27.0568C74.4342 26.3826 74.2713 25.5985 74.2713 24.7045C74.2713 23.8106 74.4342 23.0227 74.7599 22.3409C75.0895 21.6553 75.5478 21.1212 76.1349 20.7386C76.7259 20.3523 77.4152 20.1591 78.2031 20.1591C78.6577 20.1591 79.1065 20.2348 79.5497 20.3864C79.9929 20.5379 80.3963 20.7841 80.7599 21.125C81.1236 21.4621 81.4134 21.9091 81.6293 22.4659C81.8452 23.0227 81.9531 23.7083 81.9531 24.5227V25.0909H75.2259V23.9318H80.5895C80.5895 23.4394 80.491 23 80.294 22.6136C80.1009 22.2273 79.8243 21.9223 79.4645 21.6989C79.1084 21.4754 78.688 21.3636 78.2031 21.3636C77.669 21.3636 77.2069 21.4962 76.8168 21.7614C76.4304 22.0227 76.133 22.3636 75.9247 22.7841C75.7164 23.2045 75.6122 23.6553 75.6122 24.1364V24.9091C75.6122 25.5682 75.7259 26.1269 75.9531 26.5852C76.1842 27.0398 76.5043 27.3864 76.9134 27.625C77.3224 27.8598 77.7978 27.9773 78.3395 27.9773C78.6918 27.9773 79.0099 27.928 79.294 27.8295C79.5819 27.7273 79.83 27.5758 80.0384 27.375C80.2467 27.1705 80.4077 26.9167 80.5213 26.6136L81.8168 26.9773C81.6804 27.4167 81.4512 27.803 81.1293 28.1364C80.8073 28.4659 80.4096 28.7235 79.9361 28.9091C79.4626 29.0909 78.9304 29.1818 78.3395 29.1818ZM85.3338 23.75V29H83.9929V20.2727H85.2884V21.6364H85.402C85.6065 21.1932 85.9171 20.8371 86.3338 20.5682C86.7505 20.2955 87.2884 20.1591 87.9474 20.1591C88.5384 20.1591 89.0554 20.2803 89.4986 20.5227C89.9418 20.7614 90.2865 21.125 90.5327 21.6136C90.7789 22.0985 90.902 22.7121 90.902 23.4545V29H89.5611V23.5455C89.5611 22.8598 89.383 22.3258 89.027 21.9432C88.6709 21.5568 88.1823 21.3636 87.5611 21.3636C87.133 21.3636 86.7505 21.4564 86.4134 21.642C86.08 21.8277 85.8168 22.0985 85.6236 22.4545C85.4304 22.8106 85.3338 23.2424 85.3338 23.75ZM96.6477 29.1818C95.9205 29.1818 95.2784 28.9981 94.7216 28.6307C94.1648 28.2595 93.7292 27.7367 93.4148 27.0625C93.1004 26.3845 92.9432 25.5833 92.9432 24.6591C92.9432 23.7424 93.1004 22.947 93.4148 22.2727C93.7292 21.5985 94.1667 21.0777 94.7273 20.7102C95.2879 20.3428 95.9356 20.1591 96.6705 20.1591C97.2386 20.1591 97.6875 20.2538 98.017 20.4432C98.3504 20.6288 98.6042 20.8409 98.7784 21.0795C98.9564 21.3144 99.0947 21.5076 99.1932 21.6591H99.3068V17.3636H100.648V29H99.3523V27.6591H99.1932C99.0947 27.8182 98.9545 28.0189 98.7727 28.2614C98.5909 28.5 98.3314 28.714 97.9943 28.9034C97.6572 29.089 97.2083 29.1818 96.6477 29.1818ZM96.8295 27.9773C97.3674 27.9773 97.822 27.8371 98.1932 27.5568C98.5644 27.2727 98.8466 26.8807 99.0398 26.3807C99.233 25.8769 99.3295 25.2955 99.3295 24.6364C99.3295 23.9848 99.2348 23.4148 99.0455 22.9261C98.8561 22.4337 98.5758 22.0511 98.2045 21.7784C97.8333 21.5019 97.375 21.3636 96.8295 21.3636C96.2614 21.3636 95.7879 21.5095 95.4091 21.8011C95.0341 22.089 94.7519 22.4811 94.5625 22.9773C94.3769 23.4697 94.2841 24.0227 94.2841 24.6364C94.2841 25.2576 94.3788 25.822 94.5682 26.3295C94.7614 26.8333 95.0455 27.2348 95.4205 27.5341C95.7992 27.8295 96.2689 27.9773 96.8295 27.9773ZM105.858 29.2045C105.305 29.2045 104.803 29.1004 104.352 28.892C103.902 28.6799 103.544 28.375 103.278 27.9773C103.013 27.5758 102.881 27.0909 102.881 26.5227C102.881 26.0227 102.979 25.6174 103.176 25.3068C103.373 24.9924 103.636 24.7462 103.966 24.5682C104.295 24.3902 104.659 24.2576 105.057 24.1705C105.458 24.0795 105.862 24.0076 106.267 23.9545C106.797 23.8864 107.227 23.8352 107.557 23.8011C107.89 23.7633 108.133 23.7008 108.284 23.6136C108.439 23.5265 108.517 23.375 108.517 23.1591V23.1136C108.517 22.553 108.364 22.1174 108.057 21.8068C107.754 21.4962 107.294 21.3409 106.676 21.3409C106.036 21.3409 105.534 21.4811 105.17 21.7614C104.807 22.0417 104.551 22.3409 104.403 22.6591L103.131 22.2045C103.358 21.6742 103.661 21.2614 104.04 20.9659C104.422 20.6667 104.839 20.4583 105.29 20.3409C105.744 20.2197 106.191 20.1591 106.631 20.1591C106.911 20.1591 107.233 20.1932 107.597 20.2614C107.964 20.3258 108.318 20.4602 108.659 20.6648C109.004 20.8693 109.29 21.178 109.517 21.5909C109.744 22.0038 109.858 22.5568 109.858 23.25V29H108.517V27.8182H108.449C108.358 28.0076 108.206 28.2102 107.994 28.4261C107.782 28.642 107.5 28.8258 107.148 28.9773C106.795 29.1288 106.366 29.2045 105.858 29.2045ZM106.062 28C106.593 28 107.04 27.8958 107.403 27.6875C107.771 27.4792 108.047 27.2102 108.233 26.8807C108.422 26.5511 108.517 26.2045 108.517 25.8409V24.6136C108.46 24.6818 108.335 24.7443 108.142 24.8011C107.953 24.8542 107.733 24.9015 107.483 24.9432C107.237 24.9811 106.996 25.0152 106.761 25.0455C106.53 25.072 106.343 25.0947 106.199 25.1136C105.85 25.1591 105.525 25.233 105.222 25.3352C104.922 25.4337 104.68 25.5833 104.494 25.7841C104.313 25.9811 104.222 26.25 104.222 26.5909C104.222 27.0568 104.394 27.4091 104.739 27.6477C105.087 27.8826 105.528 28 106.062 28ZM112.305 29V20.2727H113.601V21.5909H113.692C113.851 21.1591 114.139 20.8087 114.555 20.5398C114.972 20.2708 115.442 20.1364 115.964 20.1364C116.063 20.1364 116.186 20.1383 116.334 20.142C116.482 20.1458 116.593 20.1515 116.669 20.1591V21.5227C116.624 21.5114 116.519 21.4943 116.357 21.4716C116.197 21.4451 116.029 21.4318 115.851 21.4318C115.427 21.4318 115.048 21.5208 114.714 21.6989C114.385 21.8731 114.124 22.1155 113.93 22.4261C113.741 22.733 113.646 23.0833 113.646 23.4773V29H112.305Z" fill="#9DA6BA"/>
<path d="M16 25C16 24.4477 16.4477 24 17 24H35C35.5523 24 36 24.4477 36 25V31C36 32.6569 34.6569 34 33 34H19C17.3431 34 16 32.6569 16 31V25Z" fill="#9DA6BA"/>
<path d="M21 14C21.5523 14 22 14.4477 22 15V16H30V15C30 14.4477 30.4477 14 31 14C31.5523 14 32 14.4477 32 15V16H33C34.6569 16 36 17.3431 36 19V21C36 21.5523 35.5523 22 35 22H17C16.4477 22 16 21.5523 16 21V19C16 17.3431 17.3431 16 19 16H20V15C20 14.4477 20.4477 14 21 14Z" fill="#9DA6BA"/>
</svg>
