<svg width="221" height="48" viewBox="0 0 221 48" fill="none" xmlns="http://www.w3.org/2000/svg">
<rect width="221" height="48" rx="6" fill="white"/>
<path d="M59.7727 21H58.3636C58.2803 20.5947 58.1345 20.2386 57.9261 19.9318C57.7216 19.625 57.4716 19.3674 57.1761 19.1591C56.8845 18.947 56.5606 18.7879 56.2045 18.6818C55.8485 18.5758 55.4773 18.5227 55.0909 18.5227C54.3864 18.5227 53.7481 18.7008 53.1761 19.0568C52.608 19.4129 52.1553 19.9375 51.8182 20.6307C51.4848 21.3239 51.3182 22.1742 51.3182 23.1818C51.3182 24.1894 51.4848 25.0398 51.8182 25.733C52.1553 26.4261 52.608 26.9508 53.1761 27.3068C53.7481 27.6629 54.3864 27.8409 55.0909 27.8409C55.4773 27.8409 55.8485 27.7879 56.2045 27.6818C56.5606 27.5758 56.8845 27.4186 57.1761 27.2102C57.4716 26.9981 57.7216 26.7386 57.9261 26.4318C58.1345 26.1212 58.2803 25.7652 58.3636 25.3636H59.7727C59.6667 25.9583 59.4735 26.4905 59.1932 26.9602C58.9129 27.4299 58.5644 27.8295 58.1477 28.1591C57.7311 28.4848 57.2633 28.733 56.7443 28.9034C56.2292 29.0739 55.678 29.1591 55.0909 29.1591C54.0985 29.1591 53.2159 28.9167 52.4432 28.4318C51.6705 27.947 51.0625 27.2576 50.6193 26.3636C50.1761 25.4697 49.9545 24.4091 49.9545 23.1818C49.9545 21.9545 50.1761 20.8939 50.6193 20C51.0625 19.1061 51.6705 18.4167 52.4432 17.9318C53.2159 17.447 54.0985 17.2045 55.0909 17.2045C55.678 17.2045 56.2292 17.2898 56.7443 17.4602C57.2633 17.6307 57.7311 17.8807 58.1477 18.2102C58.5644 18.536 58.9129 18.9337 59.1932 19.4034C59.4735 19.8693 59.6667 20.4015 59.7727 21ZM65.4134 29.1818C64.6255 29.1818 63.9342 28.9943 63.3395 28.6193C62.7486 28.2443 62.2865 27.7197 61.9531 27.0455C61.6236 26.3712 61.4588 25.5833 61.4588 24.6818C61.4588 23.7727 61.6236 22.9792 61.9531 22.3011C62.2865 21.6231 62.7486 21.0966 63.3395 20.7216C63.9342 20.3466 64.6255 20.1591 65.4134 20.1591C66.2012 20.1591 66.8906 20.3466 67.4815 20.7216C68.0762 21.0966 68.5384 21.6231 68.8679 22.3011C69.2012 22.9792 69.3679 23.7727 69.3679 24.6818C69.3679 25.5833 69.2012 26.3712 68.8679 27.0455C68.5384 27.7197 68.0762 28.2443 67.4815 28.6193C66.8906 28.9943 66.2012 29.1818 65.4134 29.1818ZM65.4134 27.9773C66.0118 27.9773 66.5043 27.8239 66.8906 27.517C67.277 27.2102 67.563 26.8068 67.7486 26.3068C67.9342 25.8068 68.027 25.2652 68.027 24.6818C68.027 24.0985 67.9342 23.5549 67.7486 23.0511C67.563 22.5473 67.277 22.1402 66.8906 21.8295C66.5043 21.5189 66.0118 21.3636 65.4134 21.3636C64.8149 21.3636 64.3224 21.5189 63.9361 21.8295C63.5497 22.1402 63.2637 22.5473 63.0781 23.0511C62.8925 23.5549 62.7997 24.0985 62.7997 24.6818C62.7997 25.2652 62.8925 25.8068 63.0781 26.3068C63.2637 26.8068 63.5497 27.2102 63.9361 27.517C64.3224 27.8239 64.8149 27.9773 65.4134 27.9773ZM76.9148 25.4318V20.2727H78.2557V29H76.9148V27.5227H76.8239C76.6193 27.9659 76.3011 28.3428 75.8693 28.6534C75.4375 28.9602 74.892 29.1136 74.233 29.1136C73.6875 29.1136 73.2027 28.9943 72.7784 28.7557C72.3542 28.5133 72.0208 28.1496 71.7784 27.6648C71.536 27.1761 71.4148 26.5606 71.4148 25.8182V20.2727H72.7557V25.7273C72.7557 26.3636 72.9337 26.8712 73.2898 27.25C73.6496 27.6288 74.108 27.8182 74.6648 27.8182C74.9981 27.8182 75.3371 27.733 75.6818 27.5625C76.0303 27.392 76.322 27.1307 76.5568 26.7784C76.7955 26.4261 76.9148 25.9773 76.9148 25.4318ZM80.7116 29V20.2727H82.0071V21.5909H82.098C82.2571 21.1591 82.545 20.8087 82.9616 20.5398C83.3783 20.2708 83.848 20.1364 84.3707 20.1364C84.4692 20.1364 84.5923 20.1383 84.7401 20.142C84.8878 20.1458 84.9995 20.1515 85.0753 20.1591V21.5227C85.0298 21.5114 84.9257 21.4943 84.7628 21.4716C84.6037 21.4451 84.4351 21.4318 84.2571 21.4318C83.8329 21.4318 83.4541 21.5208 83.1207 21.6989C82.7912 21.8731 82.5298 22.1155 82.3366 22.4261C82.1473 22.733 82.0526 23.0833 82.0526 23.4773V29H80.7116ZM92.8466 22.2273L91.642 22.5682C91.5663 22.3674 91.4545 22.1723 91.3068 21.983C91.1629 21.7898 90.9659 21.6307 90.7159 21.5057C90.4659 21.3807 90.1458 21.3182 89.7557 21.3182C89.2216 21.3182 88.7765 21.4413 88.4205 21.6875C88.0682 21.9299 87.892 22.2386 87.892 22.6136C87.892 22.947 88.0133 23.2102 88.2557 23.4034C88.4981 23.5966 88.8769 23.7576 89.392 23.8864L90.6875 24.2045C91.4678 24.3939 92.0492 24.6837 92.4318 25.0739C92.8144 25.4602 93.0057 25.9583 93.0057 26.5682C93.0057 27.0682 92.8617 27.5152 92.5739 27.9091C92.2898 28.303 91.892 28.6136 91.3807 28.8409C90.8693 29.0682 90.2746 29.1818 89.5966 29.1818C88.7064 29.1818 87.9697 28.9886 87.3864 28.6023C86.803 28.2159 86.4337 27.6515 86.2784 26.9091L87.5511 26.5909C87.6723 27.0606 87.9015 27.4129 88.2386 27.6477C88.5795 27.8826 89.0246 28 89.5739 28C90.1989 28 90.6951 27.8674 91.0625 27.6023C91.4337 27.3333 91.6193 27.0114 91.6193 26.6364C91.6193 26.3333 91.5133 26.0795 91.3011 25.875C91.089 25.6667 90.7633 25.5114 90.3239 25.4091L88.8693 25.0682C88.0701 24.8788 87.483 24.5852 87.108 24.1875C86.7367 23.786 86.5511 23.2841 86.5511 22.6818C86.5511 22.1894 86.6894 21.7538 86.9659 21.375C87.2462 20.9962 87.6269 20.6989 88.108 20.483C88.5928 20.267 89.142 20.1591 89.7557 20.1591C90.6193 20.1591 91.2973 20.3485 91.7898 20.7273C92.286 21.1061 92.6383 21.6061 92.8466 22.2273ZM98.6832 29.1818C97.8423 29.1818 97.117 28.9962 96.5071 28.625C95.901 28.25 95.4332 27.7273 95.1037 27.0568C94.7779 26.3826 94.6151 25.5985 94.6151 24.7045C94.6151 23.8106 94.7779 23.0227 95.1037 22.3409C95.4332 21.6553 95.8916 21.1212 96.4787 20.7386C97.0696 20.3523 97.759 20.1591 98.5469 20.1591C99.0014 20.1591 99.4503 20.2348 99.8935 20.3864C100.337 20.5379 100.74 20.7841 101.104 21.125C101.467 21.4621 101.757 21.9091 101.973 22.4659C102.189 23.0227 102.297 23.7083 102.297 24.5227V25.0909H95.5696V23.9318H100.933C100.933 23.4394 100.835 23 100.638 22.6136C100.445 22.2273 100.168 21.9223 99.8082 21.6989C99.4522 21.4754 99.0317 21.3636 98.5469 21.3636C98.0128 21.3636 97.5507 21.4962 97.1605 21.7614C96.7741 22.0227 96.4768 22.3636 96.2685 22.7841C96.0601 23.2045 95.956 23.6553 95.956 24.1364V24.9091C95.956 25.5682 96.0696 26.1269 96.2969 26.5852C96.5279 27.0398 96.848 27.3864 97.2571 27.625C97.6662 27.8598 98.1416 27.9773 98.6832 27.9773C99.0355 27.9773 99.3537 27.928 99.6378 27.8295C99.9257 27.7273 100.174 27.5758 100.382 27.375C100.59 27.1705 100.751 26.9167 100.865 26.6136L102.161 26.9773C102.024 27.4167 101.795 27.803 101.473 28.1364C101.151 28.4659 100.753 28.7235 100.28 28.9091C99.8063 29.0909 99.2741 29.1818 98.6832 29.1818ZM110.518 22.2273L109.314 22.5682C109.238 22.3674 109.126 22.1723 108.979 21.983C108.835 21.7898 108.638 21.6307 108.388 21.5057C108.138 21.3807 107.818 21.3182 107.428 21.3182C106.893 21.3182 106.448 21.4413 106.092 21.6875C105.74 21.9299 105.564 22.2386 105.564 22.6136C105.564 22.947 105.685 23.2102 105.928 23.4034C106.17 23.5966 106.549 23.7576 107.064 23.8864L108.359 24.2045C109.14 24.3939 109.721 24.6837 110.104 25.0739C110.486 25.4602 110.678 25.9583 110.678 26.5682C110.678 27.0682 110.534 27.5152 110.246 27.9091C109.962 28.303 109.564 28.6136 109.053 28.8409C108.541 29.0682 107.946 29.1818 107.268 29.1818C106.378 29.1818 105.642 28.9886 105.058 28.6023C104.475 28.2159 104.106 27.6515 103.95 26.9091L105.223 26.5909C105.344 27.0606 105.573 27.4129 105.911 27.6477C106.251 27.8826 106.696 28 107.246 28C107.871 28 108.367 27.8674 108.734 27.6023C109.106 27.3333 109.291 27.0114 109.291 26.6364C109.291 26.3333 109.185 26.0795 108.973 25.875C108.761 25.6667 108.435 25.5114 107.996 25.4091L106.541 25.0682C105.742 24.8788 105.155 24.5852 104.78 24.1875C104.409 23.786 104.223 23.2841 104.223 22.6818C104.223 22.1894 104.361 21.7538 104.638 21.375C104.918 20.9962 105.299 20.6989 105.78 20.483C106.265 20.267 106.814 20.1591 107.428 20.1591C108.291 20.1591 108.969 20.3485 109.462 20.7273C109.958 21.1061 110.31 21.6061 110.518 22.2273Z" fill="#9DA6BA"/>
<path fill-rule="evenodd" clip-rule="evenodd" d="M20 16C18.3431 16 17 17.3431 17 19V29C17 30.6569 18.3431 32 20 32H23.0263C23.6712 32 24.3119 32.104 24.9237 32.3079L26.6838 32.8946C26.889 32.963 27.111 32.963 27.3162 32.8946L29.0763 32.3079C29.6881 32.104 30.3288 32 30.9737 32H34C35.6569 32 37 30.6569 37 29V19C37 17.3431 35.6569 16 34 16H30C28.9072 16 27.9167 16.4382 27.1948 17.1486C27.0876 17.2541 26.9124 17.2541 26.8052 17.1486C26.0833 16.4382 25.0928 16 24 16H20ZM28 30.5585L28.4438 30.4105C29.2596 30.1386 30.1138 30 30.9737 30H34C34.5523 30 35 29.5523 35 29V19C35 18.4477 34.5523 18 34 18H30C28.8954 18 28 18.8954 28 20V30.5585Z" fill="#9DA6BA"/>
</svg>
