<svg width="169" height="23" viewBox="0 0 169 23" fill="none" xmlns="http://www.w3.org/2000/svg">
<path d="M1.48471 19V4.45455H7.05289C8.10403 4.45455 8.97761 4.62026 9.67363 4.9517C10.3744 5.27841 10.8976 5.72585 11.2432 6.29403C11.5936 6.86222 11.7688 7.50616 11.7688 8.22585C11.7688 8.81771 11.6552 9.32434 11.4279 9.74574C11.2006 10.1624 10.8952 10.5009 10.5117 10.7614C10.1282 11.0218 9.69967 11.2088 9.22619 11.3224V11.4645C9.74228 11.4929 10.2371 11.6515 10.7106 11.9403C11.1888 12.2244 11.5794 12.6269 11.8824 13.1477C12.1855 13.6686 12.337 14.2983 12.337 15.0369C12.337 15.7898 12.1547 16.4669 11.7901 17.0682C11.4255 17.6648 10.8763 18.1359 10.1424 18.4815C9.40848 18.8272 8.48518 19 7.37249 19H1.48471ZM4.11965 16.7983H6.95346C7.9099 16.7983 8.59882 16.616 9.02022 16.2514C9.44636 15.8821 9.65942 15.4086 9.65942 14.831C9.65942 14.4001 9.55289 14.0118 9.33982 13.6662C9.12675 13.3158 8.82372 13.0412 8.43073 12.8423C8.03774 12.6387 7.56899 12.5369 7.02448 12.5369H4.11965V16.7983ZM4.11965 10.6406H6.72619C7.18073 10.6406 7.5903 10.5578 7.95488 10.392C8.31946 10.2216 8.60592 9.98248 8.81425 9.67472C9.02732 9.36222 9.13386 8.9929 9.13386 8.56676C9.13386 8.00331 8.93499 7.5393 8.53727 7.17472C8.14427 6.81013 7.55952 6.62784 6.783 6.62784H4.11965V10.6406ZM21.4687 14.4119V8.09091H24.0398V19H21.5469V17.0611H21.4332C21.187 17.6719 20.7822 18.1714 20.2187 18.5597C19.66 18.9479 18.9711 19.142 18.152 19.142C17.437 19.142 16.8049 18.9834 16.2557 18.6662C15.7112 18.3442 15.285 17.8778 14.9773 17.267C14.6695 16.6515 14.5156 15.9081 14.5156 15.0369V8.09091H17.0866V14.6392C17.0866 15.3305 17.276 15.8797 17.6548 16.2869C18.0336 16.6941 18.5308 16.8977 19.1463 16.8977C19.5251 16.8977 19.892 16.8054 20.2471 16.6207C20.6023 16.4361 20.8934 16.1615 21.1207 15.7969C21.3527 15.4276 21.4687 14.9659 21.4687 14.4119ZM35.3057 10.9744L32.962 11.2301C32.8957 10.9934 32.7797 10.7708 32.614 10.5625C32.453 10.3542 32.2352 10.1861 31.9606 10.0582C31.6859 9.9304 31.3498 9.86648 30.952 9.86648C30.417 9.86648 29.9672 9.98248 29.6026 10.2145C29.2428 10.4465 29.0652 10.7472 29.0699 11.1165C29.0652 11.4337 29.1812 11.6918 29.4179 11.8906C29.6594 12.0895 30.0572 12.2528 30.6111 12.3807L32.4719 12.7784C33.5041 13.0009 34.2712 13.3537 34.7731 13.8366C35.2797 14.3196 35.5354 14.9517 35.5401 15.733C35.5354 16.4195 35.3341 17.0256 34.9364 17.5511C34.5434 18.072 33.9965 18.4792 33.2958 18.7727C32.595 19.0663 31.7901 19.2131 30.881 19.2131C29.5458 19.2131 28.471 18.9337 27.6566 18.375C26.8422 17.8116 26.3569 17.0279 26.2006 16.0241L28.7077 15.7827C28.8214 16.2751 29.0628 16.6468 29.4322 16.8977C29.8015 17.1487 30.2821 17.2741 30.8739 17.2741C31.4847 17.2741 31.9748 17.1487 32.3441 16.8977C32.7181 16.6468 32.9052 16.3366 32.9052 15.9673C32.9052 15.6548 32.7844 15.3968 32.5429 15.1932C32.3062 14.9896 31.9369 14.8333 31.435 14.7244L29.5742 14.3338C28.5278 14.116 27.7536 13.7491 27.2518 13.233C26.7499 12.7121 26.5013 12.054 26.506 11.2585C26.5013 10.5862 26.6836 10.0038 27.0529 9.51136C27.4269 9.0142 27.9454 8.63068 28.6083 8.3608C29.2759 8.08617 30.0453 7.94886 30.9165 7.94886C32.1949 7.94886 33.2011 8.22112 33.935 8.76562C34.6736 9.31013 35.1305 10.0464 35.3057 10.9744ZM55.185 9.36222H52.5287C52.453 8.92661 52.3133 8.54072 52.1097 8.20455C51.9061 7.86364 51.6528 7.57481 51.3498 7.33807C51.0467 7.10133 50.7011 6.92377 50.3128 6.8054C49.9293 6.68229 49.515 6.62074 49.0699 6.62074C48.2792 6.62074 47.5785 6.8196 46.9677 7.21733C46.3569 7.61032 45.8786 8.18797 45.533 8.95028C45.1874 9.70786 45.0145 10.6335 45.0145 11.7273C45.0145 12.84 45.1874 13.7775 45.533 14.5398C45.8834 15.2973 46.3616 15.8703 46.9677 16.2585C47.5785 16.642 48.2768 16.8338 49.0628 16.8338C49.4984 16.8338 49.9056 16.777 50.2844 16.6634C50.6679 16.545 51.0112 16.3722 51.3143 16.1449C51.622 15.9176 51.8801 15.6383 52.0884 15.3068C52.3015 14.9754 52.4483 14.5966 52.5287 14.1705L55.185 14.1847C55.0856 14.8759 54.8701 15.5246 54.5387 16.1307C54.212 16.7367 53.7835 17.2718 53.2532 17.7358C52.7229 18.1951 52.1026 18.5549 51.3924 18.8153C50.6822 19.071 49.8938 19.1989 49.0273 19.1989C47.7489 19.1989 46.6078 18.9029 45.604 18.3111C44.6002 17.7192 43.8095 16.8646 43.2319 15.7472C42.6542 14.6297 42.3654 13.2898 42.3654 11.7273C42.3654 10.16 42.6566 8.82008 43.239 7.70739C43.8214 6.58996 44.6144 5.73532 45.6182 5.14347C46.622 4.55161 47.7584 4.25568 49.0273 4.25568C49.837 4.25568 50.5898 4.36932 51.2858 4.59659C51.9819 4.82386 52.6021 5.15767 53.1466 5.59801C53.6911 6.03362 54.1386 6.56866 54.489 7.20312C54.8441 7.83286 55.0761 8.55256 55.185 9.36222ZM60.0554 12.608V19H57.4844V4.45455H59.9986V9.9446H60.1264C60.3821 9.32907 60.7774 8.84375 61.3125 8.48864C61.8523 8.12879 62.5388 7.94886 63.3721 7.94886C64.1297 7.94886 64.7902 8.10748 65.3537 8.42472C65.9171 8.74195 66.3527 9.20597 66.6605 9.81676C66.973 10.4276 67.1292 11.1733 67.1292 12.054V19H64.5582V12.4517C64.5582 11.7178 64.3688 11.1473 63.99 10.7401C63.616 10.3281 63.0904 10.1222 62.4133 10.1222C61.9588 10.1222 61.5516 10.2216 61.1917 10.4205C60.8366 10.6146 60.5573 10.8963 60.3537 11.2656C60.1548 11.6349 60.0554 12.0824 60.0554 12.608ZM74.5795 19.2131C73.4858 19.2131 72.5412 18.9858 71.7457 18.5312C70.955 18.072 70.3466 17.4233 69.9204 16.5852C69.4943 15.7424 69.2812 14.7505 69.2812 13.6094C69.2812 12.4872 69.4943 11.5024 69.9204 10.6548C70.3513 9.80256 70.9526 9.13968 71.7244 8.66619C72.4962 8.18797 73.4029 7.94886 74.4446 7.94886C75.1169 7.94886 75.7514 8.05777 76.348 8.27557C76.9493 8.48864 77.4796 8.82008 77.9389 9.26989C78.4029 9.7197 78.7675 10.2926 79.0326 10.9886C79.2978 11.6799 79.4304 12.5038 79.4304 13.4602V14.2486H70.4886V12.5156H76.9659C76.9612 12.0232 76.8546 11.5852 76.6463 11.2017C76.438 10.8134 76.1468 10.508 75.7727 10.2855C75.4034 10.063 74.9725 9.9517 74.4801 9.9517C73.9545 9.9517 73.4929 10.0795 73.0951 10.3352C72.6974 10.5862 72.3873 10.9176 72.1648 11.3295C71.9469 11.7367 71.8357 12.1842 71.8309 12.6719V14.1847C71.8309 14.8191 71.9469 15.3636 72.179 15.8182C72.411 16.268 72.7353 16.6136 73.152 16.8551C73.5686 17.0919 74.0563 17.2102 74.615 17.2102C74.9891 17.2102 75.3276 17.1581 75.6307 17.054C75.9337 16.9451 76.1965 16.7865 76.419 16.5781C76.6415 16.3698 76.8096 16.1117 76.9233 15.804L79.3238 16.0739C79.1723 16.7083 78.8835 17.2623 78.4574 17.7358C78.036 18.2045 77.4962 18.5691 76.838 18.8295C76.1799 19.0852 75.4271 19.2131 74.5795 19.2131ZM86.364 19.2131C85.275 19.2131 84.3398 18.974 83.5586 18.4957C82.7821 18.0175 82.1831 17.357 81.7617 16.5142C81.345 15.6667 81.1367 14.6913 81.1367 13.5881C81.1367 12.4801 81.3498 11.5024 81.7759 10.6548C82.202 9.80256 82.8034 9.13968 83.5799 8.66619C84.3611 8.18797 85.2844 7.94886 86.3498 7.94886C87.2352 7.94886 88.0188 8.11222 88.7006 8.43892C89.3872 8.76089 89.934 9.2178 90.3412 9.80966C90.7484 10.3968 90.9804 11.0833 91.0373 11.8693H88.5799C88.4804 11.3437 88.2437 10.9058 87.8697 10.5554C87.5003 10.2003 87.0055 10.0227 86.3853 10.0227C85.8597 10.0227 85.3981 10.1648 85.0003 10.4489C84.6026 10.7282 84.2925 11.1307 84.0699 11.6562C83.8521 12.1818 83.7432 12.8116 83.7432 13.5455C83.7432 14.2888 83.8521 14.928 84.0699 15.4631C84.2877 15.9934 84.5931 16.4029 84.9861 16.6918C85.3839 16.9759 85.8502 17.1179 86.3853 17.1179C86.7641 17.1179 87.1026 17.0469 87.4009 16.9048C87.7039 16.758 87.9572 16.5473 88.1608 16.2727C88.3644 15.9981 88.5041 15.6643 88.5799 15.2713H91.0373C90.9757 16.0431 90.7484 16.7273 90.3554 17.3239C89.9625 17.9157 89.4274 18.3797 88.7503 18.7159C88.0732 19.0473 87.2778 19.2131 86.364 19.2131ZM95.4922 15.5767L95.4851 12.473H95.897L99.8174 8.09091H102.822L97.9993 13.4602H97.4666L95.4922 15.5767ZM93.1484 19V4.45455H95.7194V19H93.1484ZM99.995 19L96.4439 14.0355L98.1768 12.2244L103.07 19H99.995ZM106.716 4.45455V5.90341C106.716 6.32008 106.635 6.75331 106.474 7.20312C106.318 7.6482 106.102 8.07434 105.828 8.48153C105.553 8.884 105.241 9.22964 104.89 9.51847L103.697 8.74432C103.957 8.35133 104.185 7.92756 104.379 7.47301C104.573 7.01373 104.67 6.49526 104.67 5.91761V4.45455H106.716ZM110.954 12.608V19H108.383V8.09091H110.84V9.9446H110.968C111.219 9.33381 111.619 8.84848 112.168 8.48864C112.722 8.12879 113.406 7.94886 114.221 7.94886C114.974 7.94886 115.629 8.10985 116.188 8.43182C116.752 8.75379 117.187 9.22017 117.495 9.83097C117.808 10.4418 117.961 11.1828 117.957 12.054V19H115.386V12.4517C115.386 11.7225 115.196 11.152 114.817 10.7401C114.443 10.3281 113.925 10.1222 113.262 10.1222C112.812 10.1222 112.412 10.2216 112.062 10.4205C111.716 10.6146 111.444 10.8963 111.245 11.2656C111.051 11.6349 110.954 12.0824 110.954 12.608ZM135.389 9.09943C135.271 8.71591 135.107 8.37263 134.899 8.0696C134.696 7.76184 134.449 7.49905 134.16 7.28125C133.876 7.06345 133.55 6.90009 133.18 6.79119C132.811 6.67756 132.409 6.62074 131.973 6.62074C131.192 6.62074 130.496 6.81723 129.885 7.21023C129.274 7.60322 128.794 8.18087 128.443 8.94318C128.098 9.70076 127.925 10.6241 127.925 11.7131C127.925 12.8116 128.098 13.742 128.443 14.5043C128.789 15.2666 129.269 15.8466 129.885 16.2443C130.5 16.6373 131.215 16.8338 132.03 16.8338C132.768 16.8338 133.408 16.6918 133.947 16.4077C134.492 16.1236 134.911 15.7211 135.205 15.2003C135.498 14.6747 135.645 14.0592 135.645 13.3537L136.241 13.446H132.293V11.3864H138.195V13.1335C138.195 14.3788 137.929 15.456 137.399 16.3651C136.869 17.2741 136.14 17.9749 135.212 18.4673C134.284 18.955 133.218 19.1989 132.016 19.1989C130.676 19.1989 129.499 18.8982 128.486 18.2969C127.477 17.6908 126.689 16.8314 126.121 15.7188C125.557 14.6013 125.276 13.2756 125.276 11.7415C125.276 10.5672 125.441 9.51847 125.773 8.59517C126.109 7.67188 126.578 6.88826 127.179 6.24432C127.78 5.59564 128.486 5.10322 129.295 4.76705C130.105 4.42614 130.986 4.25568 131.937 4.25568C132.742 4.25568 133.493 4.37405 134.189 4.6108C134.885 4.8428 135.503 5.17424 136.043 5.60511C136.587 6.03598 137.035 6.54735 137.385 7.1392C137.735 7.73106 137.965 8.38447 138.074 9.09943H135.389ZM145.387 19.2131C144.322 19.2131 143.399 18.9787 142.618 18.5099C141.836 18.0412 141.23 17.3854 140.799 16.5426C140.373 15.6998 140.16 14.715 140.16 13.5881C140.16 12.4612 140.373 11.474 140.799 10.6264C141.23 9.77888 141.836 9.12074 142.618 8.65199C143.399 8.18324 144.322 7.94886 145.387 7.94886C146.453 7.94886 147.376 8.18324 148.157 8.65199C148.939 9.12074 149.542 9.77888 149.968 10.6264C150.399 11.474 150.615 12.4612 150.615 13.5881C150.615 14.715 150.399 15.6998 149.968 16.5426C149.542 17.3854 148.939 18.0412 148.157 18.5099C147.376 18.9787 146.453 19.2131 145.387 19.2131ZM145.402 17.1534C145.979 17.1534 146.462 16.9948 146.85 16.6776C147.239 16.3556 147.528 15.9247 147.717 15.3849C147.911 14.8452 148.008 14.2438 148.008 13.581C148.008 12.9134 147.911 12.3097 147.717 11.7699C147.528 11.2254 147.239 10.7921 146.85 10.4702C146.462 10.1482 145.979 9.98722 145.402 9.98722C144.81 9.98722 144.317 10.1482 143.924 10.4702C143.536 10.7921 143.245 11.2254 143.051 11.7699C142.861 12.3097 142.767 12.9134 142.767 13.581C142.767 14.2438 142.861 14.8452 143.051 15.3849C143.245 15.9247 143.536 16.3556 143.924 16.6776C144.317 16.9948 144.81 17.1534 145.402 17.1534Z" fill="#081131"/>
</svg>
